<svg width="49" height="49" viewBox="0 0 49 49" fill="none" xmlns="http://www.w3.org/2000/svg">
<path d="M10.2082 10.208H44.9165L40.8332 28.583H14.2915M14.2915 28.583L8.16654 4.08301H-0.00012207M14.2915 28.583L16.3332 36.7497H42.8749M38.7915 46.958C38.2501 46.958 37.7308 46.7429 37.3479 46.36C36.965 45.9771 36.7499 45.4578 36.7499 44.9163C36.7499 44.3749 36.965 43.8556 37.3479 43.4727C37.7308 43.0898 38.2501 42.8747 38.7915 42.8747C39.333 42.8747 39.8523 43.0898 40.2352 43.4727C40.6181 43.8556 40.8332 44.3749 40.8332 44.9163C40.8332 45.4578 40.6181 45.9771 40.2352 46.36C39.8523 46.7429 39.333 46.958 38.7915 46.958ZM18.3749 46.958C17.8334 46.958 17.3141 46.7429 16.9312 46.36C16.5483 45.9771 16.3332 45.4578 16.3332 44.9163C16.3332 44.3749 16.5483 43.8556 16.9312 43.4727C17.3141 43.0898 17.8334 42.8747 18.3749 42.8747C18.9164 42.8747 19.4357 43.0898 19.8186 43.4727C20.2014 43.8556 20.4165 44.3749 20.4165 44.9163C20.4165 45.4578 20.2014 45.9771 19.8186 46.36C19.4357 46.7429 18.9164 46.958 18.3749 46.958Z" stroke="#DCA901" stroke-width="3"/>
</svg>
