<svg width="49" height="49" viewBox="0 0 49 49" fill="none" xmlns="http://www.w3.org/2000/svg">
<path d="M23.0505 25.0916C22.7625 25.3772 22.5662 25.7421 22.4864 26.1397C22.4066 26.5373 22.4471 26.9496 22.6026 27.3242C22.7581 27.6987 23.0216 28.0184 23.3596 28.2426C23.6975 28.4668 24.0945 28.5853 24.5001 28.5829H24.888C25.0232 28.564 25.1543 28.5226 25.2759 28.4604C25.4007 28.4182 25.5179 28.3562 25.623 28.2766L25.9292 28.0316C26.1206 27.8418 26.2725 27.616 26.3761 27.3672C26.4798 27.1184 26.5331 26.8516 26.5331 26.5821C26.5331 26.3125 26.4798 26.0457 26.3761 25.7969C26.2725 25.5481 26.1206 25.3223 25.9292 25.1325C25.5521 24.7467 25.0377 24.5259 24.4983 24.5183C23.9589 24.5106 23.4384 24.7168 23.0505 25.0916ZM24.5001 30.6246C23.9586 30.6246 23.4393 30.8397 23.0564 31.2226C22.6735 31.6054 22.4584 32.1247 22.4584 32.6662V38.7912C22.4584 39.3327 22.6735 39.852 23.0564 40.2349C23.4393 40.6178 23.9586 40.8329 24.5001 40.8329C25.0415 40.8329 25.5608 40.6178 25.9437 40.2349C26.3266 39.852 26.5417 39.3327 26.5417 38.7912V32.6662C26.5417 32.1247 26.3266 31.6054 25.9437 31.2226C25.5608 30.8397 25.0415 30.6246 24.5001 30.6246ZM37.6076 16.7821C36.3601 13.9156 34.2071 11.5372 31.4786 10.0113C28.7501 8.4855 25.5965 7.89639 22.5012 8.33428C19.4058 8.77217 16.5394 10.2129 14.3412 12.4357C12.143 14.6585 10.7343 17.5408 10.3309 20.6408C8.38433 21.107 6.67675 22.2718 5.53243 23.914C4.38811 25.5562 3.88674 27.5615 4.12353 29.549C4.36032 31.5366 5.31879 33.368 6.8169 34.6954C8.31502 36.0228 10.2485 36.7538 12.2501 36.7496H16.3334C16.8749 36.7496 17.3942 36.5345 17.7771 36.1516C18.1599 35.7687 18.3751 35.2494 18.3751 34.7079C18.3751 34.1664 18.1599 33.6471 17.7771 33.2642C17.3942 32.8813 16.8749 32.6662 16.3334 32.6662H12.2501C11.1671 32.6662 10.1285 32.236 9.3627 31.4702C8.59692 30.7045 8.16672 29.6659 8.16672 28.5829C8.16672 27.4999 8.59692 26.4613 9.3627 25.6955C10.1285 24.9298 11.1671 24.4996 12.2501 24.4996C12.7915 24.4996 13.3108 24.2845 13.6937 23.9016C14.0766 23.5187 14.2917 22.9994 14.2917 22.4579C14.2969 20.0432 15.158 17.7085 16.7219 15.8686C18.2857 14.0287 20.4512 12.8028 22.8335 12.4086C25.2159 12.0144 27.6608 12.4774 29.734 13.7155C31.8072 14.9536 33.3744 16.8865 34.1571 19.1708C34.2738 19.5217 34.4836 19.8342 34.7641 20.0751C35.0446 20.3161 35.3852 20.4763 35.7496 20.5387C37.1669 20.7832 38.4529 21.5186 39.3824 22.6161C40.3119 23.7135 40.8256 25.1031 40.8334 26.5412C40.8334 28.1657 40.1881 29.7236 39.0394 30.8723C37.8908 32.0209 36.3328 32.6662 34.7084 32.6662H32.6667C32.1252 32.6662 31.6059 32.8813 31.223 33.2642C30.8402 33.6471 30.6251 34.1664 30.6251 34.7079C30.6251 35.2494 30.8402 35.7687 31.223 36.1516C31.6059 36.5345 32.1252 36.7496 32.6667 36.7496H34.7084C37.1454 36.7271 39.4939 35.8335 41.3294 34.2303C43.165 32.6272 44.3664 30.4203 44.7166 28.0085C45.0668 25.5967 44.5426 23.1392 43.2387 21.0802C41.9349 19.0213 39.9375 17.4967 37.6076 16.7821Z" fill="#DCA901"/>
</svg>
