<svg width="60" height="60" viewBox="0 0 60 60" fill="none" xmlns="http://www.w3.org/2000/svg">
<path d="M51.8248 41.3005V18.9755C51.8269 18.6882 51.7582 18.4049 51.6248 18.1505C51.4407 17.7535 51.1218 17.4346 50.7248 17.2505L30.7248 8.30048C30.4814 8.18998 30.2172 8.13281 29.9498 8.13281C29.6825 8.13281 29.4183 8.18998 29.1748 8.30048L9.17483 17.2505C8.85317 17.4123 8.58118 17.6581 8.38757 17.9617C8.19396 18.2653 8.08591 18.6156 8.07483 18.9755V41.0255C8.09352 41.3835 8.20467 41.7306 8.39746 42.033C8.59024 42.3353 8.85807 42.5825 9.17483 42.7505L29.1748 51.7005C29.4169 51.8159 29.6817 51.8759 29.9498 51.8759C30.218 51.8759 30.4828 51.8159 30.7248 51.7005L50.7248 42.7505C51.0136 42.6183 51.2651 42.4167 51.457 42.1637C51.6489 41.9107 51.7753 41.6141 51.8248 41.3005ZM11.8248 21.8505L28.0748 29.1505V47.1005L11.8248 39.8255V21.8505ZM31.8248 29.1505L48.0748 21.8505V39.8255L31.8248 47.1005V29.1505ZM29.9998 12.0505L45.4248 18.9755L29.9998 25.8755L14.5748 18.9755L29.9998 12.0505Z" fill="#DCA901"/>
</svg>
