<svg width="106" height="40" viewBox="0 0 106 40" fill="none" xmlns="http://www.w3.org/2000/svg">
<path d="M49.3628 28.3152C47.4283 28.3152 46.3021 27.1273 46.3021 24.0404V13.1475L52.7327 13.6L53.0596 10.796L46.4522 11.095V4.91316H44.5177C43.5637 9.76568 41.1655 11.5313 37.9457 11.8303V13.301H41.7838V25.6728C41.7838 29.0505 44.3808 30.8081 47.5829 30.8081C50.1666 30.8081 52.8917 29.7778 53.8457 27.7253L52.8873 26.695C52.4103 27.4222 51.1118 28.3152 49.3628 28.3152ZM33.931 25.0707C32.6325 27.8586 30.5434 28.0162 28.4543 28.0162H21.6968C19.4532 28.0162 18.4771 27.2647 18.4771 25.5111V16.3879C18.4771 16.3879 23.3001 16.3879 24.9122 16.5455C26.1974 16.6869 26.8467 16.9859 27.3237 18.4566L27.8006 20.5212H29.7352L29.5629 15.2323L29.8897 10.0687H27.9729L27.3237 12.4323C27.0012 14.0445 26.6744 14.202 24.9122 14.4849C22.6685 14.6384 18.4771 14.6384 18.4771 14.6384V3.75356C18.4771 3.30103 18.4771 3.15962 19.2942 3.15962H29.4127C31.1882 3.15962 32.1511 4.47679 32.7827 7.11922L33.4319 9.1879H35.1942C35.3664 3.30104 35.521 0.808105 35.521 0.808105C35.521 0.808105 31.1882 1.23235 28.6222 1.23235H15.7564L8.9989 1.10709V2.71922L11.2426 3.15154C12.8635 3.45053 13.3405 3.74548 13.3405 5.06265C13.3405 5.06265 13.5127 9.03841 13.5127 15.6445C13.5127 22.2667 13.3405 26.2424 13.3405 26.2424C13.3405 27.4182 12.8635 27.8546 11.2426 28.1536L8.9989 28.6101V30.2101L15.911 30.0687H27.4959C30.062 30.0687 36.1747 30.2101 36.1747 30.2101C36.3248 28.7515 37.1287 22.2748 37.3009 21.5394H35.6756L33.931 25.0707ZM60.6077 14.4768C60.6077 12.5616 62.5377 11.8303 64.4722 11.8303C66.0622 11.8303 67.3563 12.4243 67.692 13.1435L68.8182 16.0889L70.4126 15.9475C70.4126 14.4768 70.5805 12.5616 70.9029 11.095C69.4542 10.501 66.5613 10.202 64.6268 10.202C60.2808 10.202 56.9109 11.9839 56.9109 15.8061C56.9109 22.5697 67.6876 21.099 67.6876 26.1051C67.6876 27.7172 66.5569 29.0505 63.8186 29.0505C61.2525 29.0505 60.1218 27.8626 59.6448 26.6869L58.364 23.8869H56.7342C56.9109 25.8101 57.0611 27.7172 56.7342 29.4707C56.7342 29.4707 60.1218 30.6586 63.4961 30.6586C68.01 30.6586 71.7023 28.6101 71.7023 24.7717C71.7023 18.0081 60.6077 19.0303 60.6077 14.4768ZM88.7374 10.6586V12.1293L89.8813 12.4283C90.9943 12.7111 91.4713 13.1475 91.4713 13.895C91.4713 14.3313 91.3212 14.4768 91.1489 15.0707C90.6719 16.2465 87.6067 23.1637 86.0167 26.2505C84.3179 22.3097 82.7084 18.3371 81.1893 14.3354C81.0347 14.0404 81.0347 13.899 81.0347 13.7455C81.0347 13.1475 81.4985 12.5657 82.6292 12.4283L84.0822 12.1293V10.6586L78.1374 10.9536L73.2967 10.796V12.2829L74.1227 12.5616C75.2312 12.8606 75.3902 13.0061 76.1941 14.6303C79.2548 20.8121 82.6292 28.8889 83.7731 31.398C81.1937 35.5152 78.4554 36.6869 76.3663 36.6869C75.0811 36.6869 74.6041 36.0929 74.4451 35.3576L73.8002 32.2748L72.0336 32.4162C71.7111 34.3435 71.3843 36.3919 70.9073 38.0041C72.1749 38.7394 73.628 39.1919 75.5581 39.1879C78.61 39.1879 82.956 38.4525 87.143 29.7657L94.2141 14.6263C94.8545 13.4424 95.0179 13.297 96.6256 12.7031L97.4338 12.1212V10.6586L93.2601 10.796L88.7374 10.6586Z" fill="#570AA0"/>
</svg>
