<svg width="44" height="44" viewBox="0 0 44 44" fill="none" xmlns="http://www.w3.org/2000/svg">
<path d="M28.7057 19.4609C28.2459 18.9392 27.6862 18.5392 27.0683 18.2907C26.4503 18.0422 25.7898 17.9516 25.136 18.0256C24.4822 18.0996 23.8518 18.3362 23.2915 18.718C22.7313 19.0998 22.2557 19.6169 21.8999 20.2309C21.5443 19.6167 21.0687 19.0995 20.5085 18.7176C19.9483 18.3357 19.3178 18.099 18.6639 18.025C18.01 17.951 17.3496 18.0417 16.7315 18.2903C16.1135 18.5389 15.5539 18.939 15.0941 19.4609C14.2646 20.4035 13.8002 21.6695 13.8002 22.9879C13.8002 24.3063 14.2646 25.5722 15.0941 26.5149L21.8999 34.1999L28.7075 26.5159C29.5364 25.5726 30.0003 24.3064 30 22.988C29.9996 21.6696 29.5351 20.4037 28.7057 19.4609V19.4609Z" stroke="#DCA901" stroke-width="3" stroke-miterlimit="10" stroke-linecap="round" stroke-linejoin="round"/>
<path d="M38.1 42H5.69998C4.7452 42 3.82952 41.5786 3.15439 40.8284C2.47926 40.0783 2.09998 39.0609 2.09998 38V2H16.5L21 10H41.7V38C41.7 39.0609 41.3207 40.0783 40.6456 40.8284C39.9704 41.5786 39.0548 42 38.1 42Z" stroke="#DCA901" stroke-width="3" stroke-miterlimit="10" stroke-linecap="round" stroke-linejoin="round"/>
</svg>
