<svg width="19" height="19" viewBox="0 0 19 19" fill="none" xmlns="http://www.w3.org/2000/svg">
<path d="M17.0102 15.8082C15.8368 13.7805 13.9947 12.3577 11.8542 11.7543C12.8949 11.2254 13.727 10.3613 14.2165 9.30148C14.706 8.24167 14.8243 7.04789 14.5523 5.91263C14.2803 4.77736 13.6339 3.76679 12.7173 3.04385C11.8007 2.3209 10.6674 1.92773 9.49999 1.92773C8.3326 1.92773 7.19923 2.3209 6.28263 3.04385C5.36603 3.76679 4.71963 4.77736 4.44765 5.91263C4.17567 7.04789 4.29396 8.24167 4.78345 9.30148C5.27295 10.3613 6.10512 11.2254 7.14577 11.7543C5.0053 12.357 3.16319 13.7798 1.98979 15.8082C1.95757 15.8589 1.93594 15.9155 1.92619 15.9748C1.91644 16.0341 1.91879 16.0947 1.93307 16.153C1.94736 16.2114 1.9733 16.2662 2.00934 16.3142C2.04537 16.3623 2.09075 16.4026 2.14275 16.4326C2.19474 16.4627 2.25228 16.4819 2.3119 16.4891C2.37152 16.4964 2.43199 16.4915 2.48967 16.4748C2.54735 16.458 2.60105 16.4298 2.64754 16.3918C2.69403 16.3537 2.73235 16.3067 2.76018 16.2535C4.18593 13.7902 6.70491 12.3199 9.49999 12.3199C12.2951 12.3199 14.8141 13.7902 16.2398 16.2535C16.2676 16.3067 16.3059 16.3537 16.3524 16.3918C16.3989 16.4298 16.4526 16.458 16.5103 16.4748C16.568 16.4915 16.6285 16.4964 16.6881 16.4891C16.7477 16.4819 16.8052 16.4627 16.8572 16.4326C16.9092 16.4026 16.9546 16.3623 16.9906 16.3142C17.0267 16.2662 17.0526 16.2114 17.0669 16.153C17.0812 16.0947 17.0835 16.0341 17.0738 15.9748C17.064 15.9155 17.0424 15.8589 17.0102 15.8082ZM5.1953 7.12458C5.1953 6.27319 5.44777 5.44093 5.92077 4.73302C6.39378 4.02512 7.06608 3.47338 7.85266 3.14757C8.63924 2.82176 9.50476 2.73651 10.3398 2.90261C11.1748 3.0687 11.9418 3.47868 12.5439 4.08071C13.1459 4.68273 13.5559 5.44975 13.722 6.28478C13.8881 7.1198 13.8028 7.98533 13.477 8.77191C13.1512 9.55849 12.5994 10.2308 11.8915 10.7038C11.1836 11.1768 10.3514 11.4293 9.49999 11.4293C8.35874 11.4279 7.26462 10.9739 6.45763 10.1669C5.65065 9.35995 5.19668 8.26583 5.1953 7.12458Z" fill="#2D2D2D"/>
</svg>
