<svg  version="1.0" xmlns="http://www.w3.org/2000/svg"  width="300.000000pt" height="300.000000pt" viewBox="0 0 300.000000 300.000000"  preserveAspectRatio="xMidYMid meet">  <g transform="translate(0.000000,300.000000) scale(0.100000,-0.100000)" fill="#ffcd2a" stroke="none"> <path d="M1385 2279 c-312 -46 -572 -283 -645 -589 -38 -160 -21 -372 42 -507 96 -209 272 -367 481 -433 139 -44 367 -49 375 -8 3 16 -9 18 -125 17 -180 0 -295 33 -428 122 -134 90 -238 227 -291 384 -32 97 -43 263 -25 371 42 241 212 453 439 549 105 44 178 59 292 59 114 0 187 -15 292 -59 214 -91 363 -264 429 -499 14 -53 19 -103 19 -199 0 -117 2 -128 18 -125 24 5 34 97 22 219 -43 443 -452 762 -895 698z"/> <path d="M1345 2124 c-33 -8 -94 -31 -135 -51 -105 -52 -231 -178 -283 -284 -117 -238 -79 -523 93 -711 126 -138 298 -218 466 -218 47 0 55 3 52 18 -3 14 -18 18 -80 24 -62 6 -222 48 -237 63 -2 2 7 20 19 39 12 20 19 40 15 46 -13 20 -36 9 -52 -25 -9 -19 -21 -35 -26 -35 -11 0 -187 176 -187 187 0 5 16 17 35 26 35 17 46 41 22 50 -7 3 -24 -4 -38 -14 -13 -10 -29 -19 -35 -19 -14 0 -62 141 -70 207 l-6 52 43 3 c31 2 44 7 44 18 0 11 -13 16 -44 18 l-43 3 6 52 c10 69 56 207 70 207 6 0 20 -7 30 -15 11 -8 28 -15 38 -15 31 0 20 29 -17 47 -19 9 -35 21 -35 25 0 12 175 188 187 188 5 0 17 -16 26 -35 17 -35 41 -46 50 -22 3 7 -4 24 -14 38 -10 13 -19 29 -19 34 0 20 167 74 232 75 24 0 27 -4 30 -42 2 -30 8 -43 18 -43 10 0 16 13 18 43 3 38 6 42 30 42 60 -1 232 -55 232 -73 0 -5 -9 -21 -20 -37 -17 -24 -18 -29 -5 -40 18 -15 29 -8 45 30 7 16 17 30 22 30 13 0 188 -175 188 -188 0 -5 -14 -15 -30 -22 -38 -16 -45 -27 -30 -45 11 -13 16 -12 40 5 16 11 32 20 37 20 21 0 69 -173 76 -275 1 -28 7 -40 17 -40 22 0 25 97 5 181 -28 123 -77 209 -174 304 -96 95 -186 147 -301 174 -81 19 -225 19 -305 0z"/> <path d="M1594 1705 c-49 -85 -96 -157 -105 -160 -9 -3 -55 17 -103 45 -90 52 -116 60 -116 36 0 -14 51 -49 138 -97 23 -12 42 -28 42 -34 0 -16 33 -45 52 -45 24 0 51 37 45 61 -4 16 19 65 84 176 49 84 87 158 84 163 -16 26 -39 -2 -121 -145z"/> <path d="M1850 1426 c-231 -51 -351 -301 -248 -515 12 -25 46 -69 74 -98 71 -68 142 -96 249 -97 70 -1 89 3 147 31 235 111 287 410 101 588 -54 52 -108 79 -188 94 -68 13 -64 13 -135 -3z m199 -57 c73 -32 127 -83 160 -152 40 -82 47 -139 27 -215 -27 -108 -81 -173 -181 -218 -78 -36 -186 -38 -256 -5 -209 99 -259 361 -99 521 93 93 231 120 349 69z"/> <path d="M1904 1286 c-3 -8 -3 -19 0 -24 3 -5 -8 -19 -24 -31 -24 -17 -30 -29 -30 -60 0 -41 19 -64 100 -115 29 -18 35 -28 35 -56 0 -42 -35 -67 -79 -56 -24 6 -35 20 -50 68 -8 26 -36 11 -36 -18 0 -34 25 -70 59 -83 19 -8 27 -19 27 -34 -1 -16 5 -22 19 -22 15 0 19 6 18 23 -2 18 4 26 27 34 56 19 78 102 41 150 -11 13 -40 35 -66 49 -49 26 -66 58 -45 84 21 25 50 18 62 -16 7 -19 16 -29 27 -27 27 5 24 37 -8 68 -16 17 -31 40 -33 52 -4 27 -35 36 -44 14z"/> </g> </svg> 