<svg width="60" height="60" viewBox="0 0 60 60" fill="none" xmlns="http://www.w3.org/2000/svg">
<path d="M28.125 7.5V9.60938C26.8875 9.85125 25.6875 10.275 24.6675 10.9575L23.2031 9.49125L20.5069 12.1294L22.0312 13.6519C21.3839 14.6323 20.9266 15.7256 20.6831 16.875H18.75V20.625H20.6831C20.9266 21.7744 21.3839 22.8677 22.0312 23.8481L20.5069 25.3706L23.2031 28.0069L24.6675 26.5444C25.6856 27.225 26.8875 27.6506 28.125 27.8906V30H31.875V27.8906C33.0187 27.6413 34.095 27.2306 35.04 26.6006L36.4462 28.0069L39.0825 25.3706L37.6763 23.9644C38.3512 22.9688 38.8331 21.84 39.0825 20.625H41.25V16.875H39.0825C38.8401 15.6796 38.362 14.5444 37.6763 13.5356L39.0825 12.1294L36.4444 9.49125L35.0381 10.8975C34.095 10.2694 33.0169 9.85875 31.875 9.60938V7.5H28.125ZM29.8837 13.125C33.0094 13.125 35.5087 15.6225 35.5087 18.75C35.5087 21.8775 33.0094 24.375 29.8837 24.375C26.7581 24.375 24.2587 21.8775 24.2587 18.75C24.2587 15.6225 26.7563 13.125 29.8837 13.125ZM15 30V32.0513C13.7634 32.2785 12.5866 32.7571 11.5425 33.4575L10.0781 31.9913L7.38188 34.6294L8.90625 36.1519C8.25889 37.1323 7.80157 38.2256 7.55813 39.375H5.625V43.125H7.55813C7.80188 44.2969 8.27063 45.375 8.90625 46.3481L7.38188 47.8706L10.0781 50.5088L11.5425 49.0425C12.5866 49.7429 13.7634 50.2215 15 50.4487V52.5H18.75V50.3906C19.8938 50.1413 20.97 49.7306 21.915 49.1006L23.3212 50.5069L25.9575 47.8706L24.5513 46.4644C25.2258 45.4708 25.7032 44.3568 25.9575 43.1831L28.1812 43.125L28.065 39.375L25.9556 39.4331C25.7206 38.2174 25.2423 37.0618 24.5494 36.0356L25.9556 34.6294L23.3194 31.9913L21.9131 33.3975C20.9681 32.7694 19.89 32.3587 18.7481 32.1094V30H15ZM41.25 30V32.1094C40.0125 32.3512 38.8125 32.775 37.7925 33.4575L36.3281 31.9913L33.6319 34.6294L35.1562 36.1519C34.5089 37.1323 34.0516 38.2256 33.8081 39.375H31.875V43.125H33.8081C34.0516 44.2744 34.5089 45.3677 35.1562 46.3481L33.6319 47.8706L36.3281 50.5088L37.7925 49.0425C38.8106 49.725 40.0125 50.1488 41.25 50.3906V52.5H45V50.3906C46.1096 50.1374 47.1624 49.6803 48.105 49.0425L49.5713 50.5088L52.2075 47.8706L50.8013 46.4644C51.48 45.4731 51.9578 44.3583 52.2075 43.1831L54.4313 43.125L54.315 39.375L52.2056 39.4331C51.9619 38.2106 51.4144 37.0969 50.7394 36.0938L52.2056 34.6294L49.5675 31.9913L48.105 33.4575C47.1562 32.8439 46.1043 32.4069 45 32.1675V30H41.25ZM16.7569 35.625C19.8844 35.625 22.3819 38.1225 22.3819 41.25C22.3819 44.3775 19.8844 46.875 16.7569 46.875C13.6294 46.875 11.1319 44.3775 11.1319 41.25C11.1319 38.1225 13.6313 35.625 16.7569 35.625ZM43.0069 35.625C46.1344 35.625 48.6319 38.1225 48.6319 41.25C48.6319 44.3775 46.1344 46.875 43.0069 46.875C39.8794 46.875 37.3819 44.3775 37.3819 41.25C37.3819 38.1225 39.8813 35.625 43.0069 35.625Z" fill="#DCA901"/>
</svg>
