<svg width="80" height="60" viewBox="0 0 80 60" fill="none" xmlns="http://www.w3.org/2000/svg">
<path d="M49.3333 7.97853C49.3333 7.97853 48.6666 8.17001 47.5333 8.52108C47.3333 7.94661 47.0666 7.21257 46.6666 6.51044C45.4 4.18065 43.5333 2.96789 41.2666 2.93597C41.1 2.93597 40.9666 2.93597 40.8 2.96789C40.7333 2.90406 40.6666 2.80831 40.6 2.74448C39.6333 1.72321 38.3666 1.24448 36.8666 1.2764C33.9666 1.37214 31.0666 3.38278 28.7 6.95725C27.0333 9.47853 25.8 12.6381 25.4333 15.0636C22.1 16.053 19.7666 16.7551 19.7 16.7551C18 17.2658 17.9666 17.3296 17.7333 18.8296C17.5666 19.9785 13.1666 52.6594 13.1666 52.6594L49.7666 58.7232V7.9147C49.6 7.9147 49.4333 7.94661 49.3333 7.97853ZM40.8666 10.4998C38.9333 11.0743 36.8 11.7126 34.7 12.319C35.3 10.1168 36.4333 7.94661 37.8333 6.51044C38.3666 5.96789 39.0666 5.39342 39.9333 5.04235C40.7333 6.67001 40.9 8.93597 40.8666 10.4998ZM36.9 3.12746C37.5666 3.12746 38.1666 3.25512 38.6666 3.57427C37.8666 3.95725 37.1333 4.53172 36.4 5.26576C34.5666 7.14874 33.1333 10.1168 32.5666 12.9572C30.8 13.4679 29.1 13.9785 27.5 14.4572C28.5 9.95725 32.4333 3.25512 36.9 3.12746ZM31.2333 28.6275C31.4333 31.5955 39.6333 32.2658 40.1 39.2551C40.4666 44.7445 37.0666 48.5104 32.1333 48.7977C26.2666 49.1487 23 45.8296 23 45.8296L24.2333 40.7551C24.2333 40.7551 27.5 43.1168 30.1 42.9572C31.8 42.8615 32.4 41.5211 32.3666 40.5955C32.1 36.7019 25.4333 36.9253 25.0333 30.5424C24.6666 25.1487 28.3666 19.7232 36.5 19.2126C39.6666 19.0211 41.2666 19.787 41.2666 19.787L39.4 26.4573C39.4 26.4573 37.3333 25.5636 34.8666 25.6913C31.2666 25.9147 31.2 28.0849 31.2333 28.6275ZM42.8 9.92533C42.7666 8.52108 42.6 6.54235 41.9 4.85087C44.1 5.26576 45.2 7.62746 45.6666 9.06363C44.8333 9.31895 43.8666 9.60618 42.8 9.92533ZM50.9666 58.5955L66.1666 54.9892C66.1666 54.9892 59.6333 12.67 59.6 12.3828C59.5666 12.0955 59.3 11.936 59.0666 11.9041C58.8333 11.8721 54.5666 11.8083 54.5666 11.8083C54.5666 11.8083 51.9666 9.38278 50.9666 8.45725V58.5955Z" fill="#570AA0"/>
</svg>
