<svg width="62" height="40" viewBox="0 0 62 40" fill="none" xmlns="http://www.w3.org/2000/svg">
<path d="M13.538 18.0275L29.025 3.87557C29.9464 3.03152 31.0425 2.3616 32.25 1.90444C33.4576 1.44728 34.7527 1.21191 36.0608 1.21191C37.3688 1.21191 38.6639 1.44728 39.8715 1.90444C41.079 2.3616 42.1751 3.03152 43.0965 3.87557C43.5415 4.31512 43.7826 4.89388 43.7696 5.49114C43.7566 6.08841 43.4905 6.65805 43.0267 7.08125C42.7962 7.2925 42.5219 7.46016 42.2197 7.57458C41.9176 7.689 41.5935 7.74791 41.2662 7.74791C40.9388 7.74791 40.6147 7.689 40.3126 7.57458C40.0104 7.46016 39.7362 7.2925 39.5056 7.08125L39.2731 6.83466C38.3214 6.09914 37.0994 5.71717 35.8514 5.76506C34.6033 5.81295 33.4211 6.28718 32.541 7.09299L16.7103 21.5597C15.6692 22.438 14.0934 22.438 13.1246 21.5503C12.8608 21.3098 12.6595 21.0187 12.5354 20.6983C12.4113 20.3779 12.3676 20.0364 12.4075 19.6986C12.4474 19.3609 12.5698 19.0356 12.7659 18.7464C12.9619 18.4573 13.224 18.2117 13.538 18.0275ZM48.2993 18.3352C48.0367 18.0945 47.7179 17.9108 47.3664 17.7977C47.015 17.6845 46.64 17.6449 46.2694 17.6816C45.8987 17.7184 45.542 17.8307 45.2257 18.0101C44.9094 18.1896 44.6416 18.4315 44.4424 18.718L29.025 32.8136C28.5641 33.2354 28.0159 33.5701 27.412 33.7985C26.8082 34.027 26.1606 34.1445 25.5065 34.1445C24.8525 34.1445 24.2049 34.027 23.6011 33.7985C22.9972 33.5701 22.449 33.2354 21.988 32.8136L21.9183 32.8019C21.6878 32.591 21.4137 32.4236 21.1118 32.3094C20.8099 32.1952 20.4861 32.1364 20.159 32.1364C19.832 32.1364 19.5082 32.1952 19.2063 32.3094C18.9044 32.4236 18.6303 32.591 18.3998 32.8019C18.137 33.0412 17.9361 33.3307 17.8117 33.6494C17.6874 33.9682 17.6426 34.308 17.6807 34.6444C17.7188 34.9808 17.8388 35.3053 18.032 35.5943C18.2252 35.8833 18.4867 36.1295 18.7976 36.3152C20.6859 37.8901 23.1713 38.7396 25.7333 38.6858C28.2952 38.632 30.7348 37.6789 32.541 36.0263L48.3019 21.5503C48.7696 21.1233 49.0322 20.5453 49.0322 19.9427C49.0322 19.3402 48.767 18.7621 48.2993 18.3352ZM24.0935 27.6728C23.7795 27.8569 23.5148 28.1025 23.3188 28.3917C23.1227 28.6808 23.0003 29.0062 22.9604 29.3439C22.9206 29.6816 22.9643 30.0231 23.0883 30.3435C23.2124 30.6639 23.4137 30.955 23.6775 31.1955C24.6463 32.0809 26.2195 32.0809 27.2632 31.2049L43.0939 16.7359C43.5548 16.3144 44.1028 15.98 44.7065 15.7518C45.3101 15.5236 45.9574 15.4061 46.6111 15.4061C47.2648 15.4061 47.9121 15.5236 48.5157 15.7518C49.1193 15.98 49.6674 16.3144 50.1283 16.7359C51.0638 17.5898 51.589 18.7458 51.589 19.9509C51.589 21.1561 51.0638 22.3121 50.1283 23.166L35.1191 36.9516C35.5801 37.3731 36.1281 37.7075 36.7317 37.9357C37.3353 38.1639 37.9826 38.2814 38.6363 38.2814C39.2901 38.2814 39.9373 38.1639 40.541 37.9357C41.1446 37.7075 41.6926 37.3731 42.1535 36.9516L53.6494 26.3834C55.5148 24.6726 56.5615 22.3611 56.5615 19.9521C56.5615 17.5432 55.5148 15.2317 53.6494 13.5208C52.7274 12.6772 51.631 12.0078 50.4233 11.5509C49.2156 11.0941 47.9205 10.8589 46.6124 10.8589C45.3043 10.8589 44.0091 11.0941 42.8014 11.5509C41.5937 12.0078 40.4973 12.6772 39.5754 13.5208L24.0935 27.6728ZM21.9855 26.3811L37.7438 11.905C38.2115 11.4781 38.4741 10.9001 38.4741 10.2975C38.4741 9.69493 38.2115 9.11691 37.7438 8.68996C37.4812 8.44976 37.1625 8.2664 36.8114 8.15351C36.4602 8.04063 36.0855 8.0011 35.7153 8.03788C35.345 8.07465 34.9886 8.18678 34.6725 8.36594C34.3564 8.5451 34.0888 8.78669 33.8895 9.07277L18.467 23.1707C18.006 23.5921 17.458 23.9266 16.8544 24.1548C16.2508 24.383 15.6035 24.5005 14.9497 24.5005C14.296 24.5005 13.6487 24.383 13.0451 24.1548C12.4415 23.9266 11.8935 23.5921 11.4325 23.1707C10.4963 22.3167 9.97056 21.1602 9.97056 19.9545C9.97056 18.7488 10.4963 17.5922 11.4325 16.7382L26.4443 2.95496C25.9833 2.53318 25.4351 2.19845 24.8313 1.97003C24.2274 1.74161 23.5798 1.62402 22.9258 1.62402C22.2718 1.62402 21.6242 1.74161 21.0203 1.97003C20.4165 2.19845 19.8683 2.53318 19.4073 2.95496L7.91404 13.5231C6.04827 15.2329 5.00134 17.5437 5.00134 19.9521C5.00134 22.3605 6.04827 24.6713 7.91404 26.3811C8.83527 27.2254 9.93127 27.8956 11.1388 28.3529C12.3464 28.8103 13.6416 29.0457 14.9497 29.0457C16.2579 29.0457 17.5531 28.8103 18.7607 28.3529C19.9682 27.8956 21.0642 27.2254 21.9855 26.3811Z" fill="#570AA0"/>
</svg>
