<svg width="73" height="40" viewBox="0 0 73 40" fill="none" xmlns="http://www.w3.org/2000/svg">
<path d="M40.8923 8.92895C39.6756 9.55583 39.2376 10.5908 39.2376 13.4531C39.2376 13.4531 39.852 12.8795 40.7554 12.5572C41.3125 12.3613 41.8371 12.0873 42.3127 11.744C43.3408 11.0136 43.4838 10.0822 43.4838 8.50314C43.4838 8.50314 41.8017 8.45583 40.8923 8.92895ZM33.7474 9.6061C32.7741 10.4518 32.476 11.7913 32.476 11.7913L29.1971 24.0362L26.493 13.9972C26.2284 12.9475 25.7448 11.608 24.9874 10.7238C24.0445 9.6061 22.1161 9.53809 21.9001 9.53809C21.6933 9.53809 19.7436 9.6061 18.7794 10.7416C18.0311 11.6376 17.5444 12.9623 17.2798 14.0179L14.5758 24.0569L11.3334 11.7943C11.3334 11.7943 11.0535 10.437 10.0619 9.60906C8.45289 8.23406 6.06519 8.52384 6.06519 8.52384L12.2945 31.4819C12.2945 31.4819 14.3537 31.6357 15.3818 31.1093C16.7232 30.447 17.3863 29.9236 18.2075 26.7833C18.9406 24.0037 20.9815 15.8306 21.1701 15.2362C21.2583 14.9464 21.383 14.2545 21.9031 14.2545C22.4476 14.2545 22.5541 14.9316 22.6362 15.2362C22.8309 15.8128 24.8536 24.0037 25.6049 26.7833C26.42 29.9029 27.0679 30.4115 28.4306 31.1093C29.4586 31.6357 31.5179 31.4819 31.5179 31.4819L37.7472 8.53863C37.7411 8.53863 35.3473 8.24588 33.7474 9.6061ZM43.4838 12.2674C43.4838 12.2674 43.0914 12.844 42.2063 13.3526C41.6344 13.6601 41.09 13.8789 40.4968 14.1539C39.5144 14.6093 39.2376 15.1357 39.2376 15.9134V31.4849C39.2376 31.4849 40.8254 31.6712 41.8352 31.1773C43.1614 30.5209 43.4564 29.891 43.4807 27.0257L43.4838 12.2674ZM59.0328 20.0502L66.9381 8.59185C66.9381 8.59185 63.6044 8.03298 61.9467 9.50556C60.8821 10.437 59.7019 12.1225 59.7019 12.1225L56.8063 16.2209C56.6451 16.4249 56.4899 16.6644 56.1979 16.6644C55.8968 16.6644 55.7082 16.4427 55.5835 16.2209L52.6574 12.1343C52.6574 12.1343 51.4864 10.4548 50.4066 9.52035C48.7641 8.04481 45.4152 8.60368 45.4152 8.60368L53.3327 20.0324L45.4152 31.4405C45.4152 31.4405 48.901 31.8811 50.5496 30.4056C51.6141 29.4741 52.6422 27.9306 52.6422 27.9306L55.5318 23.841C55.693 23.64 55.8481 23.4064 56.1401 23.4064C56.4443 23.4064 56.6299 23.6281 56.7546 23.841L59.6502 27.9306C59.6502 27.9306 60.73 29.4386 61.7794 30.4056C63.4158 31.8811 66.8499 31.4405 66.8499 31.4405L59.0328 20.0502Z" fill="#570AA0"/>
</svg>
