<svg width="211" height="40" viewBox="0 0 211 40" fill="none" xmlns="http://www.w3.org/2000/svg">
<g clip-path="url(#clip0_248_1799)">
<path fill-rule="evenodd" clip-rule="evenodd" d="M64.8107 0H6.6332C2.95059 0 -0.0293724 2.80885 -0.00052473 6.21769V26.9435C-0.00052473 30.3796 2.98026 33.1615 6.66205 33.1615H34.2169L46.811 39.7065L43.9472 33.1615H64.8107C68.4925 33.1615 71.4728 30.38 71.4728 26.9438V6.21769C71.4728 2.78154 68.4921 0 64.8107 0ZM5.40594 4.8C4.58749 4.85385 3.97386 5.12692 3.56505 5.645C3.15582 6.13577 3.00952 6.76308 3.0973 7.47192C4.82129 17.6988 6.42852 24.5985 7.91898 28.1708C8.50294 29.4796 9.17509 30.1069 9.96428 30.0527C11.1915 29.9708 12.6525 28.3888 14.3763 25.3073C15.2821 23.5622 16.6847 20.9442 18.584 17.4535C20.1623 22.6073 22.3243 26.4804 25.0417 29.0708C25.8016 29.8069 26.5904 30.1342 27.3499 30.0796C28.0225 30.0254 28.5484 29.6981 28.8986 29.0981C29.191 28.5799 29.3079 27.9799 29.2493 27.2981C29.0742 24.8165 29.3371 21.3531 30.0678 16.9081C30.8273 12.3265 31.7624 9.02654 32.9019 7.06308C33.136 6.65423 33.2233 6.245 33.1945 5.75423C33.136 5.12692 32.8438 4.60885 32.2887 4.19962C31.7331 3.79077 31.1195 3.59962 30.4474 3.65423C29.6001 3.70885 28.9572 4.09077 28.5187 4.85423C26.7075 7.93577 25.4217 12.9265 24.6622 19.8531C23.5515 17.235 22.616 14.1538 21.8862 10.5269C21.5647 8.91808 20.7756 8.15423 19.4898 8.23615C18.6131 8.29077 17.8827 8.83615 17.2986 9.87231L10.8994 21.2438C9.84724 17.29 8.85365 12.4631 7.94783 6.76308C7.74342 5.34513 6.89613 4.69103 5.40594 4.8ZM61.7133 6.76269C63.7878 7.17192 65.3365 8.20808 66.3886 9.92615C67.3237 11.3992 67.7911 13.1715 67.7911 15.2985C67.7911 18.1073 67.0315 20.6712 65.5121 23.0162C63.7586 25.7431 61.4796 27.1069 58.6451 27.1069C58.1487 27.1069 57.6227 27.0523 57.0671 26.9431C54.9926 26.5342 53.4439 25.4981 52.3918 23.78C51.4568 22.28 50.9894 20.48 50.9894 18.38C50.9894 15.5713 51.749 13.0079 53.2683 10.69C55.0511 7.96308 57.3301 6.59923 60.1353 6.59923C60.6323 6.59923 61.1583 6.65372 61.7133 6.76269ZM60.486 21.5165C61.5674 20.6165 62.2976 19.28 62.7069 17.4804C62.8239 16.8531 62.9113 16.1712 62.9113 15.4623C62.9113 14.6715 62.7361 13.8262 62.3854 12.9808C61.9469 11.9169 61.3626 11.3442 60.6612 11.2077C59.6094 11.0169 58.5866 11.5627 57.6227 12.8988C56.8335 13.935 56.3369 15.0258 56.074 16.1438C55.9277 16.7712 55.8691 17.4531 55.8691 18.135C55.8691 18.9258 56.0443 19.7712 56.395 20.6165C56.8335 21.68 57.4179 22.2527 58.1193 22.3892C58.8495 22.5254 59.6387 22.2258 60.486 21.5165ZM48.0679 9.92615C47.0158 8.20808 45.4378 7.17192 43.3925 6.76269C42.8376 6.65372 42.3114 6.59923 41.8142 6.59923C39.0093 6.59923 36.7304 7.96269 34.948 10.69C33.4284 13.0079 32.6688 15.5714 32.669 18.3804C32.669 20.4804 33.1364 22.2803 34.071 23.78C35.1231 25.4981 36.6719 26.5342 38.7464 26.9431C39.3014 27.0523 39.8275 27.1069 40.3248 27.1069C43.1589 27.1069 45.4378 25.7435 47.1909 23.0162C48.7108 20.6712 49.4699 18.1073 49.4699 15.2985C49.4699 13.1715 49.0026 11.3988 48.0679 9.92615ZM44.3857 17.48C43.9769 19.28 43.2462 20.6165 42.1653 21.5162C41.318 22.2254 40.5292 22.5254 39.7985 22.3892C39.0971 22.2527 38.5127 21.68 38.0743 20.6162C37.724 19.7712 37.5484 18.9258 37.5484 18.135C37.5484 17.4531 37.6069 16.7712 37.7532 16.1438C38.0162 15.0258 38.5127 13.935 39.3015 12.8988C40.2659 11.5627 41.2887 11.0169 42.3404 11.2081C43.0418 11.3442 43.6262 11.9169 44.0647 12.9808C44.415 13.8262 44.5905 14.6715 44.5905 15.4623C44.5905 16.1712 44.532 16.8527 44.3857 17.48Z" fill="#570AA0"/>
<path fill-rule="evenodd" clip-rule="evenodd" d="M78.8662 9.68068C76.9083 11.4807 75.9443 13.7714 75.9443 16.5534C75.9443 19.5257 76.9083 21.953 78.8369 23.7803C80.7656 25.6076 83.2782 26.5341 86.4049 26.5341C87.3107 26.5341 88.3336 26.398 89.4438 26.098V21.6799C88.4214 21.953 87.5444 22.0891 86.7849 22.0891C85.2362 22.0891 84.0089 21.5984 83.0738 20.6438C82.1388 19.6622 81.671 18.353 81.671 16.6899C81.671 15.1353 82.1388 13.8534 83.0446 12.8718C83.9796 11.8626 85.1191 11.3718 86.5219 11.3718C87.4278 11.3718 88.3917 11.508 89.4438 11.7807V7.36298C88.4795 7.1176 87.3985 7.00837 86.2586 7.00837C83.2782 6.98145 80.8237 7.88106 78.8662 9.68068ZM99.1449 6.98145C96.4567 6.98145 94.3529 7.82683 92.8334 9.49029C91.314 11.1541 90.5833 13.4991 90.5833 16.4991C90.5833 19.7445 91.3432 22.2261 92.8334 23.9441C94.3236 25.6622 96.5152 26.5349 99.3789 26.5349C102.154 26.5349 104.288 25.6618 105.778 23.9441C107.268 22.2261 108.028 19.7988 108.028 16.6903C108.028 13.5813 107.268 11.1813 105.749 9.49029C104.2 7.82683 102.009 6.98145 99.1449 6.98145ZM101.453 21.1622C100.927 21.9257 100.138 22.3076 99.1449 22.3076C98.2098 22.3076 97.5088 21.9257 97.0118 21.1618C96.5152 20.3984 96.2815 18.8711 96.2815 16.5534C96.2815 12.9807 97.2459 11.208 99.2034 11.208C101.249 11.208 102.301 13.008 102.301 16.6349C102.272 18.8711 101.979 20.3988 101.453 21.1622ZM122.463 7.49914L121.411 11.6718C121.148 12.7353 120.885 13.8261 120.651 14.9441L120.067 17.8349C119.512 14.9441 118.752 11.508 117.788 7.49914H111.009L108.466 26.0707H113.551L114.924 13.2807L118.401 26.0707H122.024L125.355 13.308L126.788 26.0707H132.105L129.417 7.49914H122.463ZM146.803 7.49914L145.752 11.6718C145.488 12.7353 145.225 13.8261 144.992 14.9441L144.407 17.8349C143.852 14.9441 143.092 11.508 142.128 7.49914H135.349L132.807 26.0707H137.891L139.264 13.2807L142.741 26.0707H146.365L149.667 13.308L151.099 26.0707H156.417L153.728 7.49914H146.803ZM163.342 18.7349H168.105V14.8895H163.342V11.4807H168.835V7.52683H157.966V26.098H168.865V22.1441H163.342V18.7349ZM184.001 15.7895C184.556 14.9441 184.848 14.0714 184.848 13.1718C184.848 11.4264 184.118 10.0357 182.657 9.02645C181.195 8.0176 179.179 7.49952 176.666 7.49952H170.413V26.0707H175.79V17.6168H175.878L180.231 26.0707H185.9L181.604 17.6988C182.627 17.2622 183.446 16.6349 184.001 15.7895ZM175.76 15.4895V11.0718C177.046 11.0988 177.952 11.2899 178.507 11.6718C179.062 12.0534 179.325 12.6534 179.325 13.5261C179.325 14.808 178.127 15.4626 175.76 15.4895ZM188.003 9.68106C186.046 11.4811 185.081 13.7714 185.081 16.5534C185.081 19.5257 186.046 21.953 187.975 23.7803C189.903 25.6072 192.415 26.5341 195.543 26.5341C196.448 26.5341 197.471 26.398 198.581 26.098V21.6799C197.559 21.953 196.682 22.0891 195.922 22.0891C194.374 22.0891 193.147 21.5984 192.212 20.6438C191.276 19.6622 190.809 18.353 190.809 16.6899C190.809 15.1353 191.276 13.8534 192.181 12.8718C193.117 11.8626 194.256 11.3718 195.658 11.3718C196.564 11.3718 197.529 11.508 198.581 11.7807V7.36298C197.617 7.1176 196.536 7.00837 195.397 7.00837C192.445 6.98145 189.961 7.88145 188.003 9.68106ZM205.448 22.0891V18.7076H210.21V14.8626H205.449V11.4538H210.97V7.49914H200.101V26.0707H211V22.1164H205.449L205.448 22.0891Z" fill="#2D2D2D"/>
</g>
<defs>
<clipPath id="clip0_248_1799">
<rect width="211" height="40" fill="white"/>
</clipPath>
</defs>
</svg>
