<svg width="19" height="20" viewBox="0 0 19 20" fill="none" xmlns="http://www.w3.org/2000/svg">
<path d="M16.5 4.2207H2.5C1.39543 4.2207 0.5 5.11613 0.5 6.2207V17.2207C0.5 18.3253 1.39543 19.2207 2.5 19.2207H16.5C17.6046 19.2207 18.5 18.3253 18.5 17.2207V6.2207C18.5 5.11613 17.6046 4.2207 16.5 4.2207Z" stroke="#2D2D2D"/>
<path d="M0.5 8.2207C0.5 6.3347 0.5 5.3927 1.086 4.8067C1.672 4.2207 2.614 4.2207 4.5 4.2207H14.5C16.386 4.2207 17.328 4.2207 17.914 4.8067C18.5 5.3927 18.5 6.3347 18.5 8.2207H0.5Z" fill="#2D2D2D"/>
<path d="M4.5 1.2207V4.2207M14.5 1.2207V4.2207" stroke="#2D2D2D" stroke-linecap="round"/>
</svg>
