<svg width="16" height="16" viewBox="0 0 16 16" fill="none" xmlns="http://www.w3.org/2000/svg">
<path d="M16 8C16 9.1 15.1 10 14 10H10.6667C9.56667 10 8.66667 9.1 8.66667 8C8.66667 6.9 9.56667 6 10.6667 6H14C15.1 6 16 6.9 16 8ZM10.6667 4H14C15.1 4 16 3.1 16 2C16 0.9 15.1 0 14 0H10.6667C9.56667 0 8.66667 0.9 8.66667 2C8.66667 3.1 9.56667 4 10.6667 4ZM14 12H10.6667C9.56667 12 8.66667 12.9 8.66667 14C8.66667 15.1 9.56667 16 10.6667 16H14C15.1 16 16 15.1 16 14C16 12.9 15.1 12 14 12ZM7.33333 11.3333V13.3333C7.33333 14.8067 6.14 16 4.66667 16H2.66667C1.19333 16 0 14.8067 0 13.3333V11.3333C0 9.86 1.19333 8.66667 2.66667 8.66667H4.66667C6.14 8.66667 7.33333 9.86 7.33333 11.3333ZM5.33333 11.3333C5.33333 10.9667 5.03333 10.6667 4.66667 10.6667H2.66667C2.3 10.6667 2 10.9667 2 11.3333V13.3333C2 13.7 2.3 14 2.66667 14H4.66667C5.03333 14 5.33333 13.7 5.33333 13.3333V11.3333ZM7.33333 2.66667V4.66667C7.33333 6.14 6.14 7.33333 4.66667 7.33333H2.66667C1.19333 7.33333 0 6.14 0 4.66667V2.66667C0 1.19333 1.19333 0 2.66667 0H4.66667C6.14 0 7.33333 1.19333 7.33333 2.66667ZM5.33333 2.66667C5.33333 2.3 5.03333 2 4.66667 2H2.66667C2.3 2 2 2.3 2 2.66667V4.66667C2 5.03333 2.3 5.33333 2.66667 5.33333H4.66667C5.03333 5.33333 5.33333 5.03333 5.33333 4.66667V2.66667Z" fill="#FFCD29"/>
</svg>
