<svg width="24" height="24" viewBox="0 0 24 24" fill="none" xmlns="http://www.w3.org/2000/svg">
<path d="M12 20.75C11.8019 20.7474 11.6126 20.6676 11.4725 20.5275C11.3324 20.3874 11.2526 20.1981 11.25 20V4C11.25 3.80109 11.329 3.61032 11.4697 3.46967C11.6103 3.32902 11.8011 3.25 12 3.25C12.1989 3.25 12.3897 3.32902 12.5303 3.46967C12.671 3.61032 12.75 3.80109 12.75 4V20C12.7474 20.1981 12.6676 20.3874 12.5275 20.5275C12.3874 20.6676 12.1981 20.7474 12 20.75Z" fill="#999999"/>
<path d="M13.5 18.7505H7C6.80109 18.7505 6.61032 18.6715 6.46967 18.5308C6.32902 18.3902 6.25 18.1994 6.25 18.0005C6.25 17.8016 6.32902 17.6108 6.46967 17.4701C6.61032 17.3295 6.80109 17.2505 7 17.2505H13.5C14.1615 17.3094 14.8199 17.1069 15.3339 16.6864C15.8479 16.2658 16.1768 15.6606 16.25 15.0005C16.1768 14.3404 15.8479 13.7352 15.3339 13.3146C14.8199 12.894 14.1615 12.6915 13.5 12.7505H10.5C9.97449 12.7843 9.44746 12.7141 8.94915 12.5438C8.45085 12.3735 7.99107 12.1065 7.5962 11.7581C7.20134 11.4097 6.87915 10.9867 6.64814 10.5135C6.41712 10.0403 6.28182 9.52611 6.25 9.00047C6.28182 8.47483 6.41712 7.96065 6.64814 7.48742C6.87915 7.0142 7.20134 6.59125 7.5962 6.24284C7.99107 5.89442 8.45085 5.62741 8.94915 5.45712C9.44746 5.28682 9.97449 5.2166 10.5 5.25047H16C16.1989 5.25047 16.3897 5.32949 16.5303 5.47014C16.671 5.61079 16.75 5.80156 16.75 6.00047C16.75 6.19938 16.671 6.39015 16.5303 6.5308C16.3897 6.67145 16.1989 6.75047 16 6.75047H10.5C9.83846 6.69151 9.18013 6.89402 8.6661 7.31459C8.15206 7.73517 7.82321 8.34035 7.75 9.00047C7.82321 9.66059 8.15206 10.2658 8.6661 10.6864C9.18013 11.1069 9.83846 11.3094 10.5 11.2505H13.5C14.0255 11.2166 14.5525 11.2868 15.0508 11.4571C15.5492 11.6274 16.0089 11.8944 16.4038 12.2428C16.7987 12.5912 17.1208 13.0142 17.3519 13.4874C17.5829 13.9606 17.7182 14.4748 17.75 15.0005C17.7182 15.5261 17.5829 16.0403 17.3519 16.5135C17.1208 16.9867 16.7987 17.4097 16.4038 17.7581C16.0089 18.1065 15.5492 18.3735 15.0508 18.5438C14.5525 18.7141 14.0255 18.7843 13.5 18.7505Z" fill="#999999"/>
</svg>
