<svg width="48" height="48" viewBox="0 0 48 48" fill="none" xmlns="http://www.w3.org/2000/svg">
<rect x="8" y="8" width="32" height="32" fill="#F45800"/>
<path d="M21.052 15.4997V23.5103C21.052 23.5103 23.8746 23.5103 25.3853 23.3957C26.5733 23.1877 26.792 23.073 27.0106 21.885L27.448 20.145H28.74L28.5213 23.9477L28.636 27.8437H27.3333L27.0106 26.3223C26.688 25.2397 26.2506 25.0197 25.3853 24.9157C24.3026 24.801 21.052 24.801 21.052 24.801V31.5197C21.052 32.8117 21.708 33.3637 23.2186 33.3637H27.7706C29.1773 33.3637 30.5826 33.249 31.4586 31.197L32.636 28.593H33.7293C33.6146 29.1343 33.0733 33.905 32.9693 34.9783C32.9693 34.9783 28.8546 34.8743 27.1253 34.8743H19.3226L14.6666 34.9783V33.801L16.1773 33.4677C17.2706 33.249 17.5933 32.9263 17.5933 32.061C17.5933 32.061 17.708 29.1343 17.708 24.2583C17.708 19.3943 17.5933 16.4663 17.5933 16.4663C17.5933 15.497 17.2706 15.2783 16.1773 15.0597L14.6666 14.7397V13.5517L19.2186 13.645H27.8853C29.6146 13.645 32.5306 13.333 32.5306 13.333C32.5306 13.333 32.4266 15.1663 32.312 19.4997H31.124L30.6866 17.9783C30.26 16.0303 29.6133 15.061 28.416 15.061H21.604C21.052 15.0623 21.052 15.1663 21.052 15.4997Z" fill="white"/>
</svg>
