<svg width="11" height="14" viewBox="0 0 11 14" fill="none" xmlns="http://www.w3.org/2000/svg">
<path fill-rule="evenodd" clip-rule="evenodd" d="M5.01623 0.0180711C5.17491 0.00598418 5.3362 0 5.5 0C5.66117 0 5.82228 0.00601662 5.9833 0.0180373C9.04629 0.241121 11.0617 2.65198 10.9986 5.16249C10.9747 6.12183 10.5907 7.02929 10.0248 7.80534L5.5 14L0.975431 7.80561C0.40953 7.02956 0.0253073 6.12183 0.00143539 5.16249M5.01623 0.0180711C1.95684 0.241347 -0.0616008 2.65192 0.00143539 5.16249L5.01623 0.0180711ZM5.5 0.852235C5.36295 0.852235 5.22952 0.857251 5.09963 0.867166L5.09771 0.867312C2.63195 1.04688 0.919892 3.00754 0.973576 5.14373C0.992754 5.91528 1.30329 6.67267 1.79457 7.34639L5.5 12.4193L9.20543 7.34639C9.69671 6.67267 10.0072 5.91538 10.0264 5.14383C10.0801 3.00743 8.37091 1.04689 5.90233 0.867312L5.90124 0.867231C5.76741 0.85723 5.63368 0.852235 5.5 0.852235Z" fill="#2D2D2D"/>
<path fill-rule="evenodd" clip-rule="evenodd" d="M5.49996 5.96562C6.22159 5.96562 6.80659 5.4529 6.80659 4.82042C6.80659 4.18795 6.22159 3.67523 5.49996 3.67523C4.77832 3.67523 4.19332 4.18795 4.19332 4.82042C4.19332 5.4529 4.77832 5.96562 5.49996 5.96562ZM7.77897 4.82042C7.77897 5.92357 6.75862 6.81785 5.49996 6.81785C4.24129 6.81785 3.22094 5.92357 3.22094 4.82042C3.22094 3.71727 4.24129 2.82299 5.49996 2.82299C6.75862 2.82299 7.77897 3.71727 7.77897 4.82042Z" fill="#2D2D2D"/>
</svg>
