<svg width="16" height="16" viewBox="0 0 16 16" fill="none" xmlns="http://www.w3.org/2000/svg">
<path d="M8.70692 0.292786C8.51939 0.105315 8.26508 0 7.99992 0C7.73475 0 7.48045 0.105315 7.29292 0.292786L0.292919 7.29279C0.110761 7.48139 0.00996641 7.73399 0.0122448 7.99619C0.0145233 8.25838 0.119692 8.5092 0.3051 8.6946C0.490508 8.88001 0.741321 8.98518 1.00352 8.98746C1.26571 8.98974 1.51832 8.88894 1.70692 8.70679L1.99992 8.41379V14.9998C1.99992 15.265 2.10528 15.5194 2.29281 15.7069C2.48035 15.8944 2.7347 15.9998 2.99992 15.9998H4.99992C5.26514 15.9998 5.51949 15.8944 5.70703 15.7069C5.89456 15.5194 5.99992 15.265 5.99992 14.9998V12.9998C5.99992 12.7346 6.10528 12.4802 6.29281 12.2927C6.48035 12.1051 6.7347 11.9998 6.99992 11.9998H8.99992C9.26514 11.9998 9.51949 12.1051 9.70703 12.2927C9.89456 12.4802 9.99992 12.7346 9.99992 12.9998V14.9998C9.99992 15.265 10.1053 15.5194 10.2928 15.7069C10.4803 15.8944 10.7347 15.9998 10.9999 15.9998H12.9999C13.2651 15.9998 13.5195 15.8944 13.707 15.7069C13.8946 15.5194 13.9999 15.265 13.9999 14.9998V8.41379L14.2929 8.70679C14.4815 8.88894 14.7341 8.98974 14.9963 8.98746C15.2585 8.98518 15.5093 8.88001 15.6947 8.6946C15.8801 8.5092 15.9853 8.25838 15.9876 7.99619C15.9899 7.73399 15.8891 7.48139 15.7069 7.29279L8.70692 0.292786Z" fill="#FFCD29"/>
</svg>
