<svg width="20" height="18" viewBox="0 0 20 18" fill="none" xmlns="http://www.w3.org/2000/svg">
<path d="M2.5 2.25C2.5 1.284 3.284 0.5 4.25 0.5H6.75C7.716 0.5 8.5 1.284 8.5 2.25V4.75C8.5 5.21413 8.31563 5.65925 7.98744 5.98744C7.65925 6.31563 7.21413 6.5 6.75 6.5H4.25C3.78587 6.5 3.34075 6.31563 3.01256 5.98744C2.68437 5.65925 2.5 5.21413 2.5 4.75V2.25ZM13.25 0.5C12.7859 0.5 12.3408 0.684375 12.0126 1.01256C11.6844 1.34075 11.5 1.78587 11.5 2.25V4.75C11.5 5.716 12.284 6.5 13.25 6.5H15.75C16.2141 6.5 16.6592 6.31563 16.9874 5.98744C17.3156 5.65925 17.5 5.21413 17.5 4.75V2.25C17.5 1.78587 17.3156 1.34075 16.9874 1.01256C16.6592 0.684375 16.2141 0.5 15.75 0.5H13.25ZM13 2.25C13 2.1837 13.0263 2.12011 13.0732 2.07322C13.1201 2.02634 13.1837 2 13.25 2H15.75C15.8163 2 15.8799 2.02634 15.9268 2.07322C15.9737 2.12011 16 2.1837 16 2.25V4.75C16 4.8163 15.9737 4.87989 15.9268 4.92678C15.8799 4.97366 15.8163 5 15.75 5H13.25C13.1837 5 13.1201 4.97366 13.0732 4.92678C13.0263 4.87989 13 4.8163 13 4.75V2.25ZM0 13C0 11.8065 0.474106 10.6619 1.31802 9.81802C2.16193 8.97411 3.30653 8.5 4.5 8.5H15.5C16.6935 8.5 17.8381 8.97411 18.682 9.81802C19.5259 10.6619 20 11.8065 20 13C20 14.1935 19.5259 15.3381 18.682 16.182C17.8381 17.0259 16.6935 17.5 15.5 17.5H4.5C3.30653 17.5 2.16193 17.0259 1.31802 16.182C0.474106 15.3381 0 14.1935 0 13ZM6.5 13C6.5 12.803 6.4612 12.608 6.38582 12.426C6.31044 12.244 6.19995 12.0786 6.06066 11.9393C5.92137 11.8001 5.75601 11.6896 5.57403 11.6142C5.39204 11.5388 5.19698 11.5 5 11.5C4.80302 11.5 4.60796 11.5388 4.42597 11.6142C4.24399 11.6896 4.07863 11.8001 3.93934 11.9393C3.80005 12.0786 3.68956 12.244 3.61418 12.426C3.5388 12.608 3.5 12.803 3.5 13C3.5 13.3978 3.65804 13.7794 3.93934 14.0607C4.22064 14.342 4.60218 14.5 5 14.5C5.39782 14.5 5.77936 14.342 6.06066 14.0607C6.34196 13.7794 6.5 13.3978 6.5 13ZM11.5 13C11.5 12.6022 11.342 12.2206 11.0607 11.9393C10.7794 11.658 10.3978 11.5 10 11.5C9.60218 11.5 9.22064 11.658 8.93934 11.9393C8.65804 12.2206 8.5 12.6022 8.5 13C8.5 13.3978 8.65804 13.7794 8.93934 14.0607C9.22064 14.342 9.60218 14.5 10 14.5C10.3978 14.5 10.7794 14.342 11.0607 14.0607C11.342 13.7794 11.5 13.3978 11.5 13ZM15 14.5C15.3978 14.5 15.7794 14.342 16.0607 14.0607C16.342 13.7794 16.5 13.3978 16.5 13C16.5 12.6022 16.342 12.2206 16.0607 11.9393C15.7794 11.658 15.3978 11.5 15 11.5C14.6022 11.5 14.2206 11.658 13.9393 11.9393C13.658 12.2206 13.5 12.6022 13.5 13C13.5 13.3978 13.658 13.7794 13.9393 14.0607C14.2206 14.342 14.6022 14.5 15 14.5Z" fill="#FFCD29"/>
</svg>
