<svg width="16" height="16" viewBox="0 0 16 16" fill="none" xmlns="http://www.w3.org/2000/svg">
<path d="M6 14.6667C6 15.4 5.4 16 4.66667 16C3.93333 16 3.33333 15.4 3.33333 14.6667C3.33333 13.9333 3.93333 13.3333 4.66667 13.3333C5.4 13.3333 6 13.9333 6 14.6667ZM11.3333 13.3333C10.6 13.3333 10 13.9333 10 14.6667C10 15.4 10.6 16 11.3333 16C12.0667 16 12.6667 15.4 12.6667 14.6667C12.6667 13.9333 12.0667 13.3333 11.3333 13.3333ZM15.9933 2H10V6L11.12 4.88L12.06 5.82L10.2733 7.60667C10.0133 7.86667 9.67333 7.99333 9.33333 7.99333C8.99333 7.99333 8.65333 7.86667 8.39333 7.60667L6.6 5.81333L7.54 4.87333L8.66667 6V2H3.49333L3.46667 1.76667C3.34667 0.76 2.49333 0 1.48 0H0V1.33333H1.48C1.82 1.33333 2.1 1.58667 2.14 1.92L3.19333 10.9C3.31333 11.9067 4.16667 12.6667 5.18 12.6667H13.3267V11.3333H5.18667C4.84667 11.3333 4.56667 11.08 4.52667 10.7467L4.44 10H14.4L16 2H15.9933Z" fill="#FFCD29"/>
</svg>
