<svg width="16" height="16" viewBox="0 0 16 16" fill="none" xmlns="http://www.w3.org/2000/svg">
<path fill-rule="evenodd" clip-rule="evenodd" d="M1.1712 1.1712C0 2.344 0 4.2288 0 8C0 11.7712 0 13.6568 1.1712 14.828C2.344 16 4.2288 16 8 16C11.7712 16 13.6568 16 14.828 14.828C16 13.6576 16 11.7712 16 8C16 4.2288 16 2.3432 14.828 1.1712C13.6576 0 11.7712 0 8 0C4.2288 0 2.3432 0 1.1712 1.1712ZM9.4 6.4C9.4 6.7312 9.6688 7 10 7H10.552L8.9416 8.6104C8.92302 8.62903 8.90095 8.6438 8.87665 8.65388C8.85236 8.66397 8.82631 8.66916 8.8 8.66916C8.77369 8.66916 8.74764 8.66397 8.72335 8.65388C8.69905 8.6438 8.67698 8.62903 8.6584 8.6104L7.3896 7.3416C7.12708 7.07926 6.77113 6.9319 6.4 6.9319C6.02887 6.9319 5.67292 7.07926 5.4104 7.3416L3.576 9.176C3.51705 9.23093 3.46977 9.29717 3.43698 9.37077C3.40418 9.44437 3.38655 9.52382 3.38513 9.60438C3.38371 9.68495 3.39852 9.76497 3.4287 9.83968C3.45888 9.91439 3.50379 9.98226 3.56077 10.0392C3.61774 10.0962 3.68561 10.1411 3.76032 10.1713C3.83503 10.2015 3.91506 10.2163 3.99562 10.2149C4.07618 10.2135 4.15563 10.1958 4.22923 10.163C4.30283 10.1302 4.36907 10.0829 4.424 10.024L6.2584 8.1896C6.27698 8.17097 6.29905 8.1562 6.32335 8.14612C6.34764 8.13603 6.37369 8.13084 6.4 8.13084C6.42631 8.13084 6.45236 8.13603 6.47665 8.14612C6.50095 8.1562 6.52302 8.17097 6.5416 8.1896L7.8104 9.4584C8.07292 9.72074 8.42887 9.8681 8.8 9.8681C9.17113 9.8681 9.52708 9.72074 9.7896 9.4584L11.4 7.8488V8.4C11.4 8.55913 11.4632 8.71174 11.5757 8.82426C11.6883 8.93679 11.8409 9 12 9C12.1591 9 12.3117 8.93679 12.4243 8.82426C12.5368 8.71174 12.6 8.55913 12.6 8.4V6.4C12.6 6.24087 12.5368 6.08826 12.4243 5.97574C12.3117 5.86321 12.1591 5.8 12 5.8H10C9.84087 5.8 9.68826 5.86321 9.57574 5.97574C9.46321 6.08826 9.4 6.24087 9.4 6.4Z" fill="#FFCD29"/>
</svg>
