<svg width="48" height="48" viewBox="0 0 48 48" fill="none" xmlns="http://www.w3.org/2000/svg">
<path d="M36.0412 13.0078C36.016 12.824 35.856 12.7221 35.7231 12.711C35.5913 12.6999 33.0086 12.6605 33.0086 12.6605C33.0086 12.6605 30.8486 10.5563 30.6352 10.3423C30.4219 10.1282 30.0052 10.1928 29.8431 10.2413C29.8411 10.2423 29.4375 10.3675 28.7582 10.5785C28.6444 10.209 28.4773 9.75462 28.2388 9.29825C27.4698 7.82614 26.3435 7.04768 24.9827 7.04566C24.9807 7.04566 24.9797 7.04566 24.9777 7.04566C24.8831 7.04566 24.7895 7.05475 24.6949 7.06282C24.6546 7.01436 24.6144 6.96691 24.5721 6.92046C23.9792 6.28436 23.2194 5.97439 22.3085 6.00165C20.5511 6.05214 18.8008 7.32534 17.3816 9.58702C16.3832 11.1783 15.6233 13.1775 15.4079 14.7253C13.3898 15.3523 11.9787 15.7904 11.9475 15.8006C10.9289 16.1216 10.8967 16.1529 10.7639 17.1162C10.6652 17.8441 8 38.5183 8 38.5183L30.3353 42.3934L40.0159 39.9793C40.0159 39.9793 36.0663 13.1916 36.0412 13.0078ZM27.6399 10.9258C27.1256 11.0854 26.5408 11.2671 25.9067 11.464C25.8936 10.5715 25.7879 9.32955 25.3733 8.25626C26.7069 8.50969 27.3631 10.0232 27.6399 10.9258ZM24.7381 11.8275C23.5676 12.1909 22.2903 12.5878 21.0091 12.9856C21.3694 11.6013 22.0528 10.2231 22.8923 9.31945C23.2043 8.98323 23.6411 8.60864 24.1584 8.39459C24.6445 9.41234 24.7502 10.8532 24.7381 11.8275ZM22.3437 7.1749C22.7563 7.16581 23.1036 7.25668 23.4005 7.45256C22.9255 7.69993 22.4665 8.05534 22.0357 8.51878C20.9195 9.7203 20.0639 11.5852 19.7227 13.3844C18.6589 13.7146 17.6181 14.0387 16.6599 14.3356C17.2649 11.5034 19.6311 7.25365 22.3437 7.1749Z" fill="#95BF47"/>
<path d="M35.7241 12.7121C35.5923 12.701 33.0096 12.6616 33.0096 12.6616C33.0096 12.6616 30.8497 10.5575 30.6363 10.3434C30.5568 10.2636 30.4491 10.2222 30.3363 10.2051L30.3373 42.3926L40.0169 39.9795C40.0169 39.9795 36.0674 13.1927 36.0422 13.009C36.017 12.8252 35.856 12.7232 35.7241 12.7121Z" fill="#5E8E3E"/>
<path d="M24.9706 17.7045L23.8464 21.9239C23.8464 21.9239 22.5923 21.3514 21.1057 21.4453C18.9256 21.5837 18.9024 22.9629 18.9246 23.3092C19.0434 25.1963 23.9923 25.6082 24.2701 30.0286C24.4885 33.5059 22.4312 35.8847 19.4671 36.0725C15.9091 36.2977 13.9504 34.1925 13.9504 34.1925L14.7043 30.9757C14.7043 30.9757 16.676 32.468 18.2542 32.368C19.2849 32.3024 19.6533 31.4613 19.616 30.8666C19.4611 28.405 15.431 28.5504 15.1764 24.5056C14.962 21.1021 17.1904 17.653 22.1071 17.342C24.0014 17.2198 24.9706 17.7045 24.9706 17.7045Z" fill="white"/>
</svg>
