<svg width="48" height="48" viewBox="0 0 48 48" fill="none" xmlns="http://www.w3.org/2000/svg">
<g clip-path="url(#clip0_1801:35112)">
<path d="M34.6521 8H13.3479C11.9295 8 10.5693 8.56344 9.56636 9.56636C8.56344 10.5693 8 11.9295 8 13.3479V34.6521C8 36.0705 8.56344 37.4307 9.56636 38.4336C10.5693 39.4366 11.9295 40 13.3479 40H34.6521C35.3544 40.0001 36.0499 39.8618 36.6988 39.5931C37.3477 39.3244 37.9372 38.9305 38.4339 38.4339C38.9305 37.9372 39.3244 37.3477 39.5931 36.6988C39.8618 36.0499 40.0001 35.3544 40 34.6521V13.3479C40.0002 12.6455 39.862 11.95 39.5933 11.3011C39.3246 10.6522 38.9307 10.0626 38.4341 9.56593C37.9374 9.0693 37.3478 8.67538 36.6989 8.40669C36.05 8.13801 35.3545 7.99981 34.6521 8V8ZM34.1824 32.4967C34.1822 32.944 34.0043 33.3729 33.6879 33.6892C33.3716 34.0054 32.9426 34.1831 32.4952 34.1831H15.5084C15.2869 34.1832 15.0674 34.1396 14.8627 34.0549C14.658 33.9702 14.472 33.846 14.3152 33.6894C14.1585 33.5328 14.0341 33.3469 13.9493 33.1423C13.8644 32.9376 13.8207 32.7182 13.8206 32.4967V15.5091C13.8205 15.2875 13.8641 15.0679 13.9488 14.8631C14.0336 14.6583 14.158 14.4722 14.3147 14.3154C14.4715 14.1587 14.6576 14.0344 14.8624 13.9496C15.0672 13.8648 15.2867 13.8212 15.5084 13.8213H32.4945C32.7161 13.8213 32.9356 13.865 33.1403 13.9498C33.345 14.0346 33.5311 14.159 33.6877 14.3157C33.8444 14.4724 33.9687 14.6585 34.0534 14.8633C34.1381 15.0681 34.1817 15.2875 34.1816 15.5091V32.4967H34.1824Z" fill="#2E3B4E"/>
<path d="M20.6047 28.3636C20.3471 28.3628 20.1004 28.2598 19.9188 28.0772C19.7372 27.8946 19.6355 27.6474 19.636 27.3898V20.6094C19.636 20.0719 20.0695 19.6356 20.6047 19.6356H27.3953C27.932 19.6356 28.364 20.0719 28.364 20.6094V27.3898C28.364 27.9265 27.932 28.3636 27.3953 28.3636H20.6047Z" fill="#2E3B4E"/>
</g>
<defs>
<clipPath id="clip0_1801:35112">
<rect width="32" height="32" fill="white" transform="translate(8 8)"/>
</clipPath>
</defs>
</svg>
