<svg width="16" height="16" viewBox="0 0 16 16" fill="none" xmlns="http://www.w3.org/2000/svg">
<path d="M12.6667 3.33333H3.33333C1.49533 3.33333 0 4.82867 0 6.66667V12.6667C0 14.5047 1.49533 16 3.33333 16H12.6667C14.5047 16 16 14.5047 16 12.6667V6.66667C16 4.82867 14.5047 3.33333 12.6667 3.33333ZM11.6667 11.6C11.0293 13.058 9.59 14 8 14C7.01733 14 6.08 13.6347 5.35933 13.0027V13.3333C5.35933 13.702 5.06067 14 4.69267 14C4.32467 14 4.026 13.702 4.026 13.3333V12C4.026 11.2647 4.624 10.6667 5.35933 10.6667H6.66667C7.03467 10.6667 7.33333 10.9647 7.33333 11.3333C7.33333 11.702 7.03467 12 6.66667 12H6.238C6.71867 12.4227 7.344 12.6667 8 12.6667C9.06067 12.6667 10.02 12.0387 10.4447 11.0667C10.5927 10.7287 10.9853 10.5747 11.3227 10.7227C11.66 10.87 11.814 11.2633 11.6667 11.6ZM12 8C12 8.73533 11.402 9.33333 10.6667 9.33333H9.33333C8.96533 9.33333 8.66667 9.03533 8.66667 8.66667C8.66667 8.298 8.96533 8 9.33333 8H9.762C9.28133 7.57733 8.656 7.33333 8 7.33333C6.93933 7.33333 5.98 7.96133 5.55533 8.93333C5.44533 9.184 5.20067 9.33333 4.944 9.33333C4.85467 9.33333 4.764 9.316 4.67733 9.27733C4.34 9.13 4.186 8.73667 4.33333 8.4C4.97067 6.942 6.41 6 8 6C8.99467 6 9.942 6.37467 10.6667 7.02133V6.66667C10.6667 6.298 10.9653 6 11.3333 6C11.7013 6 12 6.298 12 6.66667V8ZM4.16667 2L5.06667 0.8C5.44267 0.298667 6.04067 0 6.66667 0H9.33333C9.95867 0 10.5567 0.298667 10.9327 0.799333L11.8327 2H4.16667Z" fill="#FFCD29"/>
</svg>
