<svg width="16" height="17" viewBox="0 0 16 17" fill="none" xmlns="http://www.w3.org/2000/svg">
<path d="M3.73435 4.75281C2.42393 4.75281 1.35795 3.68682 1.35795 2.37641C1.35795 1.06599 2.42393 0 3.73435 0C5.04477 0 6.11076 1.06599 6.11076 2.37641C6.11076 3.68682 5.04477 4.75281 3.73435 4.75281ZM9.84511 4.75281C8.53469 4.75281 7.4687 3.68682 7.4687 2.37641C7.4687 1.06599 8.53469 0 9.84511 0C11.1555 0 12.2215 1.06599 12.2215 2.37641C12.2215 3.68682 11.1555 4.75281 9.84511 4.75281ZM14.9374 11.5425C14.9374 11.1684 14.862 10.8154 14.75 10.4786L16 9.75888L15.3224 8.58222L14.0731 9.30193C13.5937 8.76147 12.9555 8.36631 12.2222 8.21693V6.79041H10.8642V8.21693C10.131 8.36631 9.49204 8.76147 9.01337 9.30193L7.76406 8.58222L7.08644 9.75888L8.33643 10.4786C8.2244 10.8154 8.14903 11.1684 8.14903 11.5425C8.14903 11.9167 8.2244 12.2697 8.33643 12.6065L7.08644 13.3262L7.76406 14.5029L9.01337 13.7832C9.49272 14.3236 10.131 14.7188 10.8642 14.8682V16.2947H12.2222V14.8682C12.9555 14.7188 13.5944 14.3236 14.0731 13.7832L15.3224 14.5029L16 13.3262L14.75 12.6065C14.862 12.2697 14.9374 11.9167 14.9374 11.5425ZM11.5425 12.561C10.981 12.561 10.5241 12.1041 10.5241 11.5425C10.5241 10.981 10.981 10.5241 11.5425 10.5241C12.1041 10.5241 12.561 10.981 12.561 11.5425C12.561 12.1041 12.1041 12.561 11.5425 12.561ZM5.66467 9.88721C5.79028 9.4418 5.95935 9.01473 6.1773 8.61685C6.48012 8.02614 6.85084 7.54882 7.43543 7.02737C7.77424 6.71912 8.14496 6.44685 8.54623 6.22007C8.11169 5.73868 7.48771 5.43178 6.78973 5.43178C5.47931 5.43178 4.41332 6.49777 4.41332 7.80819C4.41332 8.70987 4.92188 9.48797 5.66467 9.88721ZM3.05538 7.80819C3.05538 6.90651 3.37721 6.07817 3.91156 5.43178H2.03692C0.913898 5.43178 0 6.34568 0 7.4687V9.50562H3.47702C3.20951 8.98825 3.05538 8.41112 3.05538 7.80819ZM5.23149 12.8278L6.8067 11.9201C6.79516 11.7938 6.78973 11.6682 6.78973 11.5425C6.78973 11.4169 6.79516 11.2913 6.8067 11.165L6.28322 10.8636H4.75281C3.62979 10.8636 2.71589 11.7775 2.71589 12.9005V14.9374H6.44617L5.23149 12.8278Z" fill="#FFCD29"/>
</svg>
