<svg width="17" height="17" viewBox="0 0 17 17" fill="none" xmlns="http://www.w3.org/2000/svg">
<path d="M5.66667 8.5C3.32279 8.5 1.41667 6.59387 1.41667 4.25C1.41667 1.90612 3.32279 0 5.66667 0C8.01054 0 9.91667 1.90612 9.91667 4.25C9.91667 6.59387 8.01054 8.5 5.66667 8.5ZM15.9375 12.75C15.9375 12.4242 15.8745 12.116 15.7831 11.82L16.7861 11.242L16.0792 10.0144L15.0797 10.5903C14.6512 10.1285 14.093 9.79342 13.4583 9.64821V8.5H12.0417V9.64821C11.407 9.79342 10.8481 10.1285 10.4203 10.5903L9.42083 10.0144L8.71392 11.242L9.71692 11.82C9.62554 12.116 9.5625 12.4242 9.5625 12.75C9.5625 13.0758 9.62554 13.384 9.71692 13.68L8.71392 14.258L9.42083 15.4856L10.4203 14.9097C10.8488 15.3715 11.407 15.7066 12.0417 15.8518V17H13.4583V15.8518C14.093 15.7066 14.6519 15.3715 15.0797 14.9097L16.0792 15.4856L16.7861 14.258L15.7831 13.68C15.8745 13.384 15.9375 13.0758 15.9375 12.75ZM12.75 13.8125C12.1642 13.8125 11.6875 13.3358 11.6875 12.75C11.6875 12.1642 12.1642 11.6875 12.75 11.6875C13.3358 11.6875 13.8125 12.1642 13.8125 12.75C13.8125 13.3358 13.3358 13.8125 12.75 13.8125ZM7.08333 12.75C7.08333 11.7165 7.36454 10.7511 7.84763 9.91667H3.1875C1.43012 9.91667 0 11.3468 0 13.1042V17H9.01071C7.83133 15.9616 7.08333 14.445 7.08333 12.75Z" fill="#FFCD29"/>
</svg>
