<svg width="48" height="48" viewBox="0 0 48 48" fill="none" xmlns="http://www.w3.org/2000/svg">
<path d="M26.749 16.9003C25.9871 17.3031 25.7152 17.967 25.7152 19.8064C25.7152 19.8064 26.0961 19.4361 26.6622 19.2296C27.0756 19.0881 27.4241 18.8593 27.6306 18.7071C28.2727 18.239 28.36 17.64 28.36 16.628C28.36 16.628 27.3151 16.5951 26.749 16.9003V16.9003Z" fill="#2E3133"/>
<path d="M22.2868 17.3353C21.6771 17.8796 21.492 18.7394 21.492 18.7394L19.4457 26.598L17.7586 20.1545C17.5953 19.4798 17.2905 18.6201 16.8223 18.0536C16.2349 17.3353 15.0266 17.2917 14.8958 17.2917C14.765 17.2917 13.5465 17.3353 12.9475 18.0647C12.4793 18.6414 12.1749 19.4905 12.0116 20.1652L10.3245 26.6087L8.29966 18.7394C8.29966 18.7394 8.12565 17.8685 7.50569 17.3353C6.50397 16.4537 5.0127 16.6388 5.0127 16.6388L8.89864 31.3759C8.89864 31.3759 10.183 31.4738 10.8252 31.1364C11.6631 30.7119 12.0766 30.3746 12.5884 28.3608C13.0454 26.5758 14.319 21.3294 14.4388 20.9485C14.4931 20.7634 14.5692 20.3174 14.8958 20.3174C15.2331 20.3174 15.299 20.7527 15.3529 20.9485C15.4726 21.3187 16.7351 26.5762 17.2033 28.3608C17.715 30.3639 18.1178 30.6901 18.9669 31.1364C19.6086 31.4738 20.8934 31.3759 20.8934 31.3759L24.7789 16.6495C24.7789 16.6495 23.2881 16.4644 22.2868 17.3353ZM28.36 19.0442C28.36 19.0442 28.1206 19.4144 27.5656 19.7407C27.2065 19.9369 26.8688 20.078 26.4989 20.2524C25.8893 20.5462 25.7152 20.8835 25.7152 21.3841V31.3767C25.7152 31.3767 26.7054 31.496 27.3369 31.1805C28.1638 30.7559 28.3489 30.3536 28.36 28.5139V19.0442ZM38.0691 24.0401L43 16.682C43 16.682 40.9209 16.3229 39.887 17.2703C39.2231 17.8685 38.4826 18.9463 38.4826 18.9463L36.6758 21.5804C36.5779 21.7108 36.48 21.8634 36.2948 21.8634C36.1097 21.8634 35.9904 21.7219 35.9139 21.5804L34.0853 18.957C34.0853 18.957 33.3563 17.8791 32.6812 17.281C31.6581 16.334 29.5683 16.6927 29.5683 16.6927L34.5098 24.0294L29.5683 31.3545C29.5683 31.3545 31.7453 31.6375 32.7684 30.6905C33.4324 30.0919 34.0746 29.1013 34.0746 29.1013L35.8814 26.4783C35.9793 26.3475 36.0772 26.1953 36.2623 26.1953C36.4475 26.1953 36.5668 26.3368 36.6433 26.4783L38.4501 29.1013C38.4501 29.1013 39.1248 30.0701 39.778 30.6905C40.8011 31.6375 42.9457 31.3545 42.9457 31.3545L38.0691 24.0401Z" fill="#2E3133"/>
</svg>
