<svg width="48" height="48" viewBox="-8 -10 64 64" xmlns="http://www.w3.org/2000/svg">
<g id="surface1">
<path style=" stroke:none;fill-rule:nonzero;fill:rgb(49.803922%,32.941176%,70.196078%);fill-opacity:1;" d="M 4.453125 9.65625 L 43.527344 9.65625 C 46 9.65625 48 11.65625 48 14.128906 L 48 29.042969 C 48 31.515625 46 33.519531 43.527344 33.519531 L 29.515625 33.519531 L 31.4375 38.230469 L 22.980469 33.519531 L 4.476562 33.519531 C 2.003906 33.519531 0 31.515625 0 29.042969 L 0 14.128906 C -0.0195312 11.675781 1.984375 9.65625 4.453125 9.65625 Z M 4.453125 9.65625 "/>
<path style=" stroke:none;fill-rule:nonzero;fill:rgb(100%,100%,100%);fill-opacity:1;" d="M 2.734375 13.734375 C 3.007812 13.363281 3.417969 13.167969 3.960938 13.128906 C 4.957031 13.050781 5.523438 13.519531 5.660156 14.535156 C 6.265625 18.613281 6.929688 22.066406 7.632812 24.894531 L 11.902344 16.757812 C 12.292969 16.015625 12.78125 15.628906 13.367188 15.589844 C 14.226562 15.53125 14.753906 16.074219 14.96875 17.226562 C 15.457031 19.824219 16.078125 22.027344 16.820312 23.898438 C 17.328125 18.945312 18.1875 15.375 19.398438 13.167969 C 19.691406 12.621094 20.117188 12.347656 20.683594 12.308594 C 21.132812 12.269531 21.542969 12.40625 21.914062 12.699219 C 22.285156 12.992188 22.480469 13.363281 22.519531 13.8125 C 22.539062 14.164062 22.480469 14.457031 22.324219 14.75 C 21.5625 16.152344 20.9375 18.515625 20.429688 21.792969 C 19.941406 24.972656 19.769531 27.453125 19.886719 29.226562 C 19.921875 29.714844 19.847656 30.144531 19.652344 30.515625 C 19.417969 30.945312 19.066406 31.179688 18.617188 31.21875 C 18.109375 31.257812 17.582031 31.023438 17.074219 30.496094 C 15.261719 28.640625 13.816406 25.871094 12.761719 22.183594 C 11.496094 24.679688 10.558594 26.554688 9.953125 27.800781 C 8.800781 30.007812 7.828125 31.140625 7.007812 31.199219 C 6.480469 31.238281 6.03125 30.789062 5.640625 29.851562 C 4.644531 27.296875 3.574219 22.359375 2.421875 15.042969 C 2.34375 14.535156 2.460938 14.085938 2.734375 13.734375 Z M 44.664062 16.796875 C 43.964844 15.570312 42.929688 14.828125 41.542969 14.535156 C 41.171875 14.457031 40.820312 14.417969 40.492188 14.417969 C 38.617188 14.417969 37.09375 15.394531 35.90625 17.34375 C 34.890625 19.003906 34.382812 20.835938 34.382812 22.847656 C 34.382812 24.347656 34.695312 25.636719 35.320312 26.710938 C 36.023438 27.9375 37.054688 28.679688 38.441406 28.972656 C 38.8125 29.050781 39.164062 29.089844 39.496094 29.089844 C 41.386719 29.089844 42.910156 28.113281 44.082031 26.164062 C 45.09375 24.484375 45.601562 22.652344 45.601562 20.640625 C 45.621094 19.121094 45.289062 17.851562 44.664062 16.796875 Z M 42.207031 22.203125 C 41.933594 23.492188 41.445312 24.445312 40.722656 25.089844 C 40.160156 25.597656 39.632812 25.8125 39.144531 25.714844 C 38.675781 25.617188 38.285156 25.207031 37.992188 24.445312 C 37.757812 23.839844 37.640625 23.238281 37.640625 22.671875 C 37.640625 22.183594 37.679688 21.695312 37.777344 21.246094 C 37.953125 20.445312 38.285156 19.667969 38.8125 18.925781 C 39.457031 17.96875 40.140625 17.578125 40.839844 17.714844 C 41.308594 17.8125 41.699219 18.222656 41.992188 18.984375 C 42.226562 19.589844 42.34375 20.191406 42.34375 20.757812 C 42.34375 21.265625 42.304688 21.753906 42.207031 22.203125 Z M 32.453125 16.796875 C 31.75 15.570312 30.695312 14.828125 29.328125 14.535156 C 28.957031 14.457031 28.605469 14.417969 28.277344 14.417969 C 26.402344 14.417969 24.878906 15.394531 23.691406 17.34375 C 22.675781 19.003906 22.167969 20.835938 22.167969 22.847656 C 22.167969 24.347656 22.480469 25.636719 23.105469 26.710938 C 23.808594 27.9375 24.839844 28.679688 26.226562 28.972656 C 26.597656 29.050781 26.949219 29.089844 27.28125 29.089844 C 29.171875 29.089844 30.695312 28.113281 31.867188 26.164062 C 32.878906 24.484375 33.386719 22.652344 33.386719 20.640625 C 33.386719 19.121094 33.074219 17.851562 32.453125 16.796875 Z M 29.972656 22.203125 C 29.699219 23.492188 29.210938 24.445312 28.492188 25.089844 C 27.925781 25.597656 27.398438 25.8125 26.910156 25.714844 C 26.441406 25.617188 26.050781 25.207031 25.757812 24.445312 C 25.523438 23.839844 25.40625 23.238281 25.40625 22.671875 C 25.40625 22.183594 25.445312 21.695312 25.542969 21.246094 C 25.71875 20.445312 26.050781 19.667969 26.578125 18.925781 C 27.222656 17.96875 27.90625 17.578125 28.605469 17.714844 C 29.074219 17.8125 29.464844 18.222656 29.757812 18.984375 C 29.992188 19.589844 30.109375 20.191406 30.109375 20.757812 C 30.128906 21.265625 30.070312 21.753906 29.972656 22.203125 Z M 29.972656 22.203125 "/>
</g>
</svg>
