<?xml version="1.0" standalone="no"?>
<!DOCTYPE svg PUBLIC "-//W3C//DTD SVG 20010904//EN"
 "http://www.w3.org/TR/2001/REC-SVG-20010904/DTD/svg10.dtd">
<svg version="1.0" xmlns="http://www.w3.org/2000/svg"
 width="624.000000pt" height="624.000000pt" viewBox="0 0 624.000000 624.000000"
 preserveAspectRatio="xMidYMid meet">
<metadata>
Created by potrace 1.14, written by Peter Selinger 2001-2017
</metadata>
<g transform="translate(0.000000,624.000000) scale(0.100000,-0.100000)"
fill="#000000" stroke="none">
<path d="M1035 6000 c-442 -79 -822 -402 -965 -820 -24 -71 -23 -67 -46 -160
-18 -74 -27 -365 -14 -427 5 -21 11 -54 14 -73 18 -114 87 -290 162 -410 70
-112 83 -128 190 -235 130 -131 281 -227 452 -289 64 -23 102 -33 237 -62 47
-10 355 -12 355 -2 0 5 4 7 8 4 12 -7 219 43 267 64 79 35 115 50 124 50 6 0
11 4 11 9 0 5 10 13 23 17 24 7 152 89 178 114 9 8 42 38 74 65 63 54 155 165
211 252 45 70 111 211 126 269 l12 44 181 1 c305 0 659 -2 662 -4 1 -2 4 -210
7 -462 2 -253 5 -463 5 -467 1 -5 161 -8 356 -8 357 0 361 0 356 33 -1 9 -4 9
214 13 430 8 639 15 931 29 140 7 164 11 234 42 250 108 405 280 443 490 20
110 13 329 -13 397 -60 158 -149 268 -295 365 -121 80 -194 110 -280 117 -126
10 -556 22 -961 28 -188 3 -215 6 -237 22 -32 24 -33 28 -32 157 1 59 -3 107
-7 107 -4 0 -11 0 -14 -1 -17 -2 -23 54 -15 123 1 4 20 -13 44 -39 23 -25 70
-75 104 -111 l62 -65 748 1 c411 0 756 1 766 1 16 1 17 21 17 284 l-1 282
-133 138 -133 137 -1066 0 -1067 0 0 -375 c0 -206 -3 -374 -7 -374 -29 5 -34
-3 -33 -48 3 -78 1 -84 -17 -81 -12 2 -18 -3 -17 -14 1 -10 -3 -19 -10 -19
-52 -6 -689 -2 -693 4 -2 4 -4 210 -4 457 l0 450 -440 0 -439 0 0 -36 c0 -30
-3 -35 -17 -29 -20 8 -107 31 -150 40 -132 28 -327 30 -468 5z m385 -750 c97
-33 234 -136 246 -186 3 -12 6 -95 7 -185 l2 -163 39 -2 c39 -3 60 -19 48 -39
-4 -5 -7 -12 -7 -15 -12 -82 -72 -189 -146 -262 -65 -63 -173 -121 -254 -135
-83 -15 -265 -3 -265 18 0 5 -7 9 -16 9 -9 0 -35 10 -58 22 -110 60 -207 173
-247 288 -31 91 -31 239 0 329 27 79 85 165 147 220 57 50 171 108 234 119 77
14 199 6 270 -18z m2945 -774 c77 -3 275 -8 439 -11 l299 -6 33 -25 c52 -40
64 -78 64 -196 0 -81 -4 -109 -17 -128 -16 -24 -63 -69 -73 -71 -3 0 -14 -3
-25 -5 -11 -2 -254 -7 -540 -10 l-520 -6 0 199 0 198 63 -2 c34 -1 62 1 63 5
0 4 2 16 4 27 2 10 0 24 -5 30 -6 7 5 10 33 8 23 -1 105 -4 182 -7z"/>
<path d="M2492 4276 c-7 -30 -32 -100 -56 -155 -127 -292 -355 -508 -621 -588
l-60 -18 374 -3 c206 -1 376 -1 378 1 2 2 2 187 1 411 -3 360 -5 401 -16 352z"/>
<path d="M123 3154 c-51 -22 -80 -52 -104 -107 -45 -107 -6 -230 91 -286 35
-20 137 -23 174 -4 129 65 159 246 58 350 -58 59 -148 79 -219 47z m144 -32
c40 -22 73 -96 78 -177 3 -45 -22 -118 -49 -144 -47 -44 -134 -44 -180 2 -55
55 -76 192 -39 264 36 70 117 94 190 55z"/>
<path d="M770 3162 c-1 -4 -1 -77 -1 -162 1 -126 -1 -152 -12 -139 -14 18
-128 148 -167 190 -14 15 -40 46 -58 68 -35 42 -70 57 -55 24 11 -23 9 -315
-2 -333 -5 -9 -4 -11 3 -6 15 9 15 5 2 -28 -9 -23 -7 -26 14 -26 l24 0 -2 138
c-1 75 0 143 2 150 3 8 13 3 31 -17 27 -30 121 -138 154 -175 61 -70 87 -97
93 -96 4 0 8 92 9 204 1 189 0 205 -17 209 -10 3 -18 2 -18 -1z"/>
<path d="M1089 3166 c0 -1 -1 -94 -2 -209 l-2 -207 34 0 c28 0 32 3 26 18 -6
14 -9 101 -6 165 1 16 11 17 104 15 l102 -3 0 -98 0 -97 32 0 c28 0 31 3 27
23 -8 37 -7 354 1 367 10 16 -11 28 -38 23 -21 -4 -22 -8 -19 -96 l4 -92 -99
0 c-54 0 -102 3 -108 7 -10 6 -12 118 -3 134 10 17 -9 47 -30 49 -12 1 -22 1
-23 1z"/>
<path d="M1634 3158 c-10 -14 -163 -374 -171 -399 -4 -13 1 -16 21 -12 16 3
26 12 26 23 0 21 38 109 48 111 20 4 149 5 158 2 14 -5 49 -89 53 -126 1 -11
16 -13 64 -8 4 1 0 16 -9 34 -10 17 -50 111 -90 207 -40 96 -77 176 -82 178
-6 2 -14 -3 -18 -10z m36 -144 c17 -41 34 -82 37 -90 4 -11 -9 -14 -70 -14
l-75 0 36 90 c20 50 37 90 38 90 1 0 16 -34 34 -76z"/>
<path d="M2185 3160 c-3 -5 -5 -24 -5 -42 0 -18 0 -82 1 -141 1 -60 -2 -111
-6 -115 -4 -4 -13 1 -20 11 -7 10 -34 42 -59 70 -25 29 -53 61 -63 73 -67 78
-128 144 -133 144 -3 0 -6 -92 -6 -205 0 -189 1 -205 17 -205 16 0 18 13 17
143 0 78 0 146 1 151 1 5 11 -2 24 -16 52 -58 96 -108 157 -178 84 -97 87
-100 97 -100 4 0 8 92 9 205 0 156 -3 206 -13 209 -7 3 -15 1 -18 -4z"/>
<path d="M2319 3155 c0 -5 -1 -99 -2 -207 -2 -170 0 -198 13 -199 211 -17 308
48 312 209 3 98 -33 163 -107 193 -38 15 -215 19 -216 4z m197 -36 c47 -28 69
-81 69 -164 0 -93 -21 -136 -78 -164 -25 -12 -63 -21 -90 -21 l-46 0 -3 108
c-2 59 -2 142 0 185 l3 77 57 -1 c36 -1 69 -8 88 -20z"/>
<path d="M2942 3154 c-36 -25 -52 -65 -42 -108 9 -40 17 -52 73 -111 58 -60
69 -88 58 -147 -1 -6 -32 -19 -58 -24 -18 -3 -63 35 -63 52 0 8 -4 12 -10 9
-17 -11 -11 -53 10 -68 10 -7 39 -14 64 -16 86 -4 138 79 98 156 -10 17 -41
57 -70 87 -61 64 -77 113 -47 146 21 23 61 18 87 -11 21 -25 24 -24 22 8 -1
42 -77 59 -122 27z"/>
<path d="M3272 3155 c-97 -43 -149 -181 -107 -281 35 -84 91 -125 180 -131 49
-3 67 0 100 19 143 83 141 315 -3 384 -49 24 -128 28 -170 9z m155 -42 c98
-74 87 -292 -17 -336 -63 -26 -131 -2 -168 62 -52 88 -35 247 30 282 59 32
105 29 155 -8z"/>
<path d="M3649 3163 c-14 -3 -15 -30 -15 -210 l1 -205 68 0 c133 1 127 0 127
23 0 19 -4 20 -47 13 -27 -4 -59 -8 -73 -8 l-25 -1 1 192 c1 195 -1 204 -37
196z"/>
<path d="M3896 3145 c4 -10 6 -80 5 -153 -1 -118 1 -140 19 -178 32 -65 117
-91 201 -62 72 25 83 53 85 221 1 76 5 145 8 152 6 16 -21 48 -33 40 -5 -2 -7
-69 -7 -147 2 -174 1 -182 -35 -218 -25 -25 -36 -28 -80 -26 -44 2 -56 7 -80
33 l-27 32 -1 153 c0 84 0 158 0 163 -1 6 -14 10 -31 10 -25 0 -29 -3 -24 -20z"/>
<path d="M4272 3150 c-3 -8 -7 -18 -9 -22 -2 -4 15 -5 39 -1 24 3 57 6 73 7
l30 1 0 -192 -1 -193 27 0 26 0 -1 193 -1 192 30 -1 c17 0 47 -3 68 -7 33 -5
37 -4 37 16 0 22 -2 22 -156 22 -130 0 -157 -3 -162 -15z"/>
<path d="M4655 2958 l0 -206 28 -4 c18 -3 27 0 27 9 0 7 1 101 1 210 l0 196
-28 1 -28 1 0 -207z"/>
<path d="M4925 3159 c-35 -10 -90 -60 -111 -101 -21 -40 -24 -134 -7 -185 8
-24 19 -43 23 -43 5 0 11 -9 15 -20 3 -10 31 -31 61 -46 135 -66 278 17 286
167 5 81 -9 123 -54 171 -58 62 -131 81 -213 57z m112 -21 c24 -3 74 -66 87
-109 18 -60 13 -158 -9 -197 -19 -31 -79 -69 -105 -66 -8 1 -25 2 -37 3 -34 2
-90 57 -106 106 -31 91 -6 224 45 241 10 3 18 9 18 14 0 11 27 16 65 12 17 -1
35 -3 42 -4z"/>
<path d="M5566 3162 c-2 -4 -3 -76 -2 -160 l2 -154 -50 55 c-28 30 -62 68 -76
84 -107 123 -153 173 -159 173 -3 0 -6 -92 -6 -205 0 -198 1 -205 20 -205 19
0 20 6 17 152 l-3 153 38 -40 c21 -22 67 -74 103 -115 36 -41 83 -94 105 -118
l41 -43 1 200 c1 110 4 204 7 209 3 5 -3 12 -14 15 -11 3 -22 2 -24 -1z"/>
<path d="M5725 3147 c-33 -28 -44 -91 -22 -133 8 -16 36 -50 61 -76 54 -57 66
-78 66 -116 0 -36 -19 -53 -59 -54 -30 -1 -48 11 -69 47 -9 16 -11 17 -12 3 0
-9 -3 -23 -6 -32 -4 -10 5 -20 26 -31 44 -23 114 -15 140 15 50 58 38 108 -46
203 -71 79 -80 99 -65 140 15 38 72 40 102 4 l18 -22 1 24 c0 52 -87 70 -135
28z"/>
<path d="M5622 957 c-24 -11 -34 -35 -37 -87 -1 -30 -5 -35 -27 -38 -20 -2
-25 -7 -21 -23 3 -10 14 -19 24 -19 22 0 21 8 23 -155 l1 -130 28 -3 27 -3 0
145 0 146 28 0 c21 0 28 5 29 20 2 19 -12 25 -45 21 -9 -2 -12 9 -10 36 2 30
8 38 28 43 35 8 35 53 -1 55 -13 1 -35 -3 -47 -8z"/>
<path d="M10 932 c0 -27 0 -27 68 -27 37 0 72 -1 77 -2 7 -2 10 -76 10 -203
l0 -200 33 0 33 0 -1 183 c-1 100 -1 191 -1 202 1 19 7 21 74 20 75 -1 88 5
80 36 -5 17 -18 19 -189 18 l-184 0 0 -27z"/>
<path d="M1298 948 c-2 -7 -4 -110 -3 -228 l1 -215 27 -3 c27 -3 27 -3 27 61
0 49 4 68 18 80 10 10 23 17 28 17 8 0 31 -33 61 -90 31 -57 48 -72 82 -68
l32 3 -42 65 c-23 36 -52 82 -65 102 l-23 37 60 60 c33 34 59 61 57 62 -2 1
-16 2 -32 4 -23 2 -41 -11 -100 -68 l-71 -70 -3 132 c-3 130 -3 131 -26 131
-13 0 -26 -6 -28 -12z"/>
<path d="M3119 923 c0 -21 0 -57 1 -81 l2 -42 -37 21 c-43 26 -114 22 -146 -7
-83 -75 -80 -244 4 -301 49 -33 134 -28 158 10 8 12 31 -1 24 -14 -4 -5 5 -9
19 -9 21 0 26 5 27 28 1 34 1 390 0 415 -1 11 -9 17 -26 17 -22 0 -25 -4 -26
-37z m-46 -144 c63 -29 62 -194 -2 -229 -30 -15 -78 -12 -96 7 -19 18 -40 69
-39 93 1 8 2 30 2 48 1 22 12 43 31 63 31 31 64 36 104 18z"/>
<path d="M5750 926 c0 -32 2 -34 28 -32 22 3 27 8 27 32 0 24 -5 30 -27 32
-26 3 -28 1 -28 -32z"/>
<path d="M5900 881 c0 -44 -2 -49 -20 -44 -16 4 -20 0 -20 -21 0 -19 5 -26 20
-26 19 0 20 -7 21 -122 1 -68 1 -126 1 -129 -2 -12 35 -40 57 -44 33 -6 51 5
51 31 0 19 -5 23 -22 21 -23 -2 -23 0 -26 121 l-3 122 26 0 c20 0 25 5 25 24
0 19 -4 24 -20 21 -25 -5 -32 8 -32 56 1 37 -1 39 -29 39 -28 0 -29 -1 -29
-49z"/>
<path d="M714 838 c-47 -10 -80 -41 -88 -80 -4 -25 -2 -28 25 -28 23 0 29 4
29 21 0 23 50 48 88 45 48 -5 80 -58 50 -84 -7 -6 -40 -13 -72 -17 -74 -8
-114 -28 -130 -66 -18 -43 -8 -85 26 -114 37 -31 86 -33 144 -4 l43 20 20 -20
c12 -12 32 -21 46 -21 20 0 25 5 25 24 0 14 -7 26 -18 28 -16 5 -18 17 -17
119 1 128 -7 152 -58 168 -55 16 -71 17 -113 9z m106 -248 c-23 -55 -123 -68
-147 -20 -17 35 3 63 53 73 21 5 53 12 69 16 27 6 30 4 33 -17 2 -13 -2 -37
-8 -52z"/>
<path d="M1072 839 c-96 -20 -146 -161 -97 -268 21 -47 57 -73 109 -78 75 -9
134 30 151 100 6 24 5 27 -19 27 -16 0 -29 -7 -33 -17 -23 -65 -95 -84 -138
-37 -34 37 -38 134 -7 187 34 56 119 52 142 -8 5 -13 18 -21 35 -23 25 -2 26
0 20 31 -15 68 -82 104 -163 86z"/>
<path d="M2634 838 c-72 -19 -122 -108 -111 -200 12 -97 63 -148 150 -148 64
0 101 21 133 75 23 40 26 54 22 118 -4 81 -22 116 -75 142 -40 19 -79 24 -119
13z m100 -61 c49 -32 50 -167 3 -215 -34 -33 -91 -33 -124 1 -19 18 -26 38
-29 83 -10 118 67 185 150 131z"/>
<path d="M3678 827 c-53 -27 -78 -70 -85 -145 -13 -142 94 -231 211 -175 23
11 42 30 55 57 22 47 19 56 -14 56 -17 0 -26 -8 -33 -29 -22 -63 -101 -69
-140 -11 -20 29 -23 44 -20 93 5 71 31 110 79 117 41 7 75 -12 83 -46 5 -17
13 -24 31 -24 33 0 36 10 16 56 -29 64 -111 87 -183 51z"/>
<path d="M5335 844 c-5 -1 -21 -5 -35 -8 -122 -27 -149 -258 -38 -326 44 -27
122 -27 166 0 94 58 99 253 8 309 -30 18 -80 31 -101 25z m69 -68 c63 -41 47
-211 -22 -233 -44 -15 -84 -1 -110 37 -20 29 -23 44 -20 93 8 105 77 153 152
103z"/>
<path d="M410 668 l0 -169 28 3 27 3 2 95 c0 52 1 103 2 113 1 27 47 67 76 67
21 0 25 5 25 30 0 25 -4 30 -25 30 -15 0 -36 -11 -49 -25 -28 -30 -36 -32 -31
-5 2 11 1 21 -3 21 -4 1 -17 3 -29 4 l-23 2 0 -169z"/>
<path d="M1993 832 l-23 -3 0 -228 c0 -125 2 -230 5 -233 3 -3 16 -3 28 -1 22
4 24 10 24 74 1 38 2 74 2 80 1 6 13 1 27 -10 51 -40 153 -17 182 41 31 63 35
165 7 218 -35 67 -133 93 -188 50 -30 -24 -38 -25 -31 -6 7 17 -4 23 -33 18z
m174 -57 c43 -30 52 -129 18 -194 -19 -39 -68 -54 -107 -34 -35 17 -49 43 -50
96 -2 76 2 94 27 121 28 30 78 35 112 11z"/>
<path d="M2335 830 c-2 -4 -4 -80 -4 -169 l1 -161 29 0 29 0 0 115 c0 110 1
117 25 140 13 14 35 25 48 25 24 0 43 32 31 52 -11 18 -53 6 -81 -22 l-29 -30
0 27 c1 20 -4 27 -22 28 -13 1 -25 -1 -27 -5z"/>
<path d="M3263 832 c-6 -4 -9 -57 -8 -138 1 -145 11 -175 63 -195 38 -15 100
-4 128 22 l24 22 0 -21 c0 -17 6 -22 28 -22 l27 0 0 160 c-1 87 -4 162 -8 167
-4 4 -16 8 -27 10 -21 3 -23 -14 -22 -152 1 -52 -14 -109 -33 -125 -8 -7 -30
-14 -49 -17 -26 -3 -39 1 -54 17 -17 18 -20 36 -20 108 0 167 0 168 -20 169
-10 1 -23 -2 -29 -5z"/>
<path d="M3989 817 c-92 -61 -99 -238 -12 -301 33 -24 101 -32 147 -16 37 12
86 65 86 92 0 26 -38 15 -69 -19 -24 -27 -37 -33 -71 -33 -43 0 -90 33 -90 64
0 8 -3 21 -6 30 -5 14 9 16 121 16 l128 0 -7 53 c-4 28 -14 62 -22 75 -41 62
-142 82 -205 39z m127 -35 c17 -12 44 -55 44 -72 0 -12 -16 -15 -90 -16 -88
-1 -90 -1 -90 22 0 37 44 74 88 74 20 0 42 -4 48 -8z"/>
<path d="M4730 821 c-24 -19 -46 -19 -35 0 4 5 -8 9 -24 9 l-31 0 0 -233 0
-234 23 3 c12 1 25 3 28 3 3 1 5 31 4 69 -2 90 1 96 32 72 53 -42 145 -16 182
51 30 52 33 158 7 207 -35 66 -132 94 -186 53z m123 -63 c36 -48 31 -150 -9
-193 -28 -30 -81 -34 -114 -7 -43 35 -46 162 -4 207 33 36 98 32 127 -7z"/>
<path d="M5007 832 c-2 -4 -4 -80 -4 -169 l0 -163 28 0 29 0 0 114 c0 129 10
152 70 165 28 5 34 11 35 34 2 23 -2 27 -26 27 -18 0 -38 -10 -54 -27 -14 -15
-26 -23 -26 -18 -1 6 -2 16 -3 24 -1 15 -42 26 -49 13z"/>
<path d="M5750 664 l0 -165 28 3 27 3 1 163 2 162 -29 0 -29 0 0 -166z"/>
<path d="M1630 536 c0 -25 5 -35 19 -39 15 -3 18 -11 14 -27 -3 -12 -12 -24
-19 -27 -19 -7 -18 -33 1 -33 25 0 49 50 51 107 l1 53 -33 0 c-32 0 -34 -2
-34 -34z"/>
<path d="M4300 536 c0 -25 5 -35 19 -39 15 -3 18 -11 14 -27 -3 -12 -12 -24
-19 -27 -18 -7 -18 -33 -1 -33 28 0 49 38 54 99 l6 61 -37 0 c-34 0 -36 -2
-36 -34z"/>
<path d="M6083 538 c2 -29 6 -33 35 -36 31 -3 32 -2 32 32 0 34 -2 36 -34 36
-32 0 -34 -2 -33 -32z"/>
</g>
</svg>
